<?xml version="1.0" encoding="utf-8"?>
<!-- Generator: Adobe Illustrator 24.1.2, SVG Export Plug-In . SVG Version: 6.00 Build 0)  -->
<svg version="1.1" id="Слой_1" xmlns="http://www.w3.org/2000/svg" xmlns:xlink="http://www.w3.org/1999/xlink" x="0px" y="0px"
	 viewBox="0 0 1366 768" style="enable-background:new 0 0 1366 768;" xml:space="preserve">
<style type="text/css">
	.st0{fill:#FCDADB;}
	.st1{fill:#FCDBDC;}
	.st2{fill:#FDF0F0;}
	.st3{fill:#FCDCDD;}
	.st4{fill:#FCDDDE;}
	.st5{fill:#FCE0E1;}
	.st6{fill:#FDEFEF;}
	.st7{fill:#FDEBEC;}
	.st8{fill:#FCE1E2;}
	.st9{fill:#FDEAEB;}
	.st10{fill:#FCE3E4;}
	.st11{fill:#FDE8E9;}
	.st12{fill:#FDE9EA;}
	.st13{fill:#FDE7E8;}
	.st14{fill:#FCE4E5;}
	.st15{fill:#FDEAEA;}
	.st16{fill:#FDE9E9;}
	.st17{fill:#FCDFE0;}
	.st18{fill:#FDEDED;}
	.st19{fill:#FCE2E3;}
	.st20{fill:#FCE6E7;}
	.st21{fill:#FCE5E6;}
	.st22{fill:#FCE3E3;}
	.st23{fill:#FDE7E7;}
	.st24{fill:#FEF3F3;}
	.st25{fill:#FDECED;}
	.st26{fill:#FCE6E6;}
	.st27{fill:#FDF2F3;}
	.st28{fill:#FDE6E7;}
	.st29{fill:#FDF1F2;}
	.st30{fill:#FDEEEE;}
	.st31{fill:#FDECEC;}
	.st32{fill:#FCE4E4;}
	.st33{fill:#FDEBEB;}
	.st34{fill:#FCDEDF;}
	.st35{fill:#FDEFF0;}
	.st36{fill:#FDE5E6;}
	.st37{fill:#FDF0F1;}
	.st38{fill:#FCE7E8;}
	.st39{fill:#FCE9E9;}
	.st40{fill:#FCE0E0;}
	.st41{fill:#FEF4F4;}
	.st42{fill:#FDEDEE;}
	.st43{fill:#FCDDDD;}
	.st44{fill:#FCE7E7;}
	.st45{fill:#FDF1F1;}
	.st46{fill:#FDEEEF;}
	.st47{fill:#FEF6F6;}
	.st48{fill:#FCE8E8;}
	.st49{fill:#FEFCFC;}
	.st50{fill:#FCE1E1;}
</style>
<path class="st0" d="M429.53,517.88c-2.58,0-5.15,0.01-7.73,0.01c-1.49,0-3.06,0.12-3.25-1.99c0.07-0.15,0.2-0.3,0.19-0.44
	c-0.13-2.05,4.25-0.46,2.74-2.91c-1.21-1.97-3.12,0-4.62,0.74c-0.43,0.21-0.85,0.46-1.32,0.58c-1.69,3.27-4.27,4.79-7.99,4.03
	c-1.3-2.98,2.85-3.67,2.59-6.21c0.03-0.43,0.19-0.81,0.49-1.12c0.9-0.44,2.04,0.18,2.83-0.6c-0.06,0.02,0.08-0.07-0.04,0
	c-0.58,0.33,0.19-0.11-0.4,0.26c-0.66,0.19-1.24,0.12-1.73-0.36c0.51-2.37,1.19-4.74-2.26-5.59c-0.81-0.2-0.32-1.46-0.78-2.08
	c-0.91-0.36-1.95-0.37-2.71-1.08c-0.21-0.39-0.22-0.79-0.04-1.19c0.38-1.28,3.76-0.55,2.12-3.18c-0.24-0.37-0.46-0.74-0.66-1.12
	c-8.02-4.48-15.18-10.31-24.15-15.62c4.96,4.81,10.53,6.76,14.33,10.98c2.64,2.94,7.35,2.04,9.69,5.44
	c-4.71,3.46-9.09,1.82-13.4-0.84c-0.4-0.25-0.77-0.55-1.11-0.87c-1.27-1.11-1.73-3.07-3.67-3.49c-1.06-0.22-2.15-0.3-3.17-0.73
	c-2.31-0.9-3.5-3.36-5.87-4.17c-0.83-0.1-1.65-0.13-2.48-0.19c-1.61-0.13-4.13,0.3-4.36-1.41c-0.34-2.55,2.76-1.34,4.22-2.53
	c-3.2-2.87-5.18-0.38-6.85,1.67c-1.87,2.32-3.5,4.83-6,6.53c-1.43,0.97-2.74,2.62-4.82,1.29c-0.33-3.27-0.66-6.52,0.22-9.75
	c0.47-5.26,4.06-9,6.87-12.96c1.38-1.95,1.34-2.83,0.2-4.55c-1.84-2.75-3.42-5.67-5.11-8.51c-0.32-1.01,0.15-1.24,1.04-1.05
	c0.66,0.03,1.32,0.06,1.98,0.09c2.49,1.16,4.25-0.57,6.15-1.61c2.08-1.15,0.77-2.31-0.09-3.43c2.09-1.9,4.62-0.61,6.92-0.94
	c0.36,0.31,0.55,0.71,0.59,1.18c-0.69,2.53-1.89,4.99-0.94,7.72c0.25,2.62,1.56,3.71,4.23,3.05c2.07-0.51,4.16-0.93,5.52,1.42
	c0.24,2.4-1.99,1.92-3.14,2.7c-1.04,0.44-2.12,0.73-3.27,0.54c-2.34-0.65-4.5-0.3-6.48,1.12c-2.81,1.84-3.91,3.77-0.36,5.99
	c0.43,0.85-0.45,2.23,0.78,2.64c1.33,0.44,1.39-1.09,2.02-1.75c5.32-1.89,8.69-1.02,12.11,2.33c2.45,2.4,5.43,4.23,7.92,6.65
	c1.63,1.58,3.45-0.43,5.2-0.08c0.73,0.13,1.3,0.53,1.81,1.04c2.6,3.88,7.91,4.53,9.68,7.59c-1.85-2.32-5.47-4.96-6.22-9.48
	c0.12-0.45,0.37-0.81,0.77-1.07c1.5-0.46,2.31,0.53,3.16,1.48c0.49,0.55,0.99,1.42,1.71,0.19c0.38-0.81,0.81-1.54,1.86-1.51
	c0.42,0.24,0.76,0.55,1.04,0.93c0.82,1.23,1.08,2.64,1.35,4.05c0.33,1.62,0.87,3.16,1.8,4.89c1.86,0.17,3.22-3.55,5.57-0.57
	c-0.57-3.08-2.4-4.99-3.42-7.31c-1.26-2.86,4.54-2.89,2.04-6c-0.72,1.28-1.18,2.65-1.84,3.91c-1.35,2.59-1.91,0.87-2.47-0.55
	c1.15-2.43-1.23-3.43-2.08-5.06c-0.29-2.9-0.67-5.8,0.43-8.62c0.28-0.49,0.7-0.74,1.26-0.77c0.38,0.38,1.34,0.59,0.42,1.38
	c0.51,0.06,0.55-0.26,0.45-0.62c-0.92-3.3,0.68-6.55,0.21-9.85c0.12-1.37,0.25-2.74,1.52-3.62c2.62,3.22,0.64,6.78,1.22,9.55
	c1.19-5.88-2.33-12.91,1.5-19.2c0.54-2.27,3.38-0.09,4.08-2.11c2.04-0.49,3.81-1.05,3.62-3.82c-0.14-2.02,0.95-3.48,3.1-3.91
	c0.76,0.05,1.32,0.4,1.66,1.08c3.33,4.62-0.12,6.96-3.18,9.44c-3.19,2.36-4,5.48-4.4,9.45c-0.58,5.73-1.79,11.36-0.76,15.87
	c1.45-5.07,1.52-11.66,3.34-17.95c1.07-1.4,2.54-1.51,4.12-1.28c3.95,1.07,7.79,2.34,11.56,4.09c1.57,0.73,3.9,0.25,5.15,2.29
	c0.35,0.66,0.49,1.36,0.41,2.11c-0.17,0.94-0.6,1.75-1.25,2.43c-1.32,0.78-3,0.34-4.29,1.25c-4.49,3.38-8.85,6.81-6.55,13.48
	c2.58,8.57,8.31,13.01,17.3,13.08c1.88,0.01,2.92,1.68,4.5,1.68c1.4,0,2.65-1.3,4.24-0.93c-1.8-2.38-5.46-3.45-4.96-7.34
	c2.19-2.07,1-5.82,3.74-7.63c4.39-3.72,5.81-3.57,6.95,1.61c0.88,3.98,5.02,4.51,6.03,6.89c-0.74-0.74-2.1-2.09-1.62-4.26
	c0.6-0.84,1.33-1.37,2.43-1.02c2.98,3.02,3.54,7.7,7.26,10.63c2.06-3.32,1.42-6.59,0.62-9.88c-0.78-3.07-1.4-6.1-0.87-9.35
	c0.56-3.41-0.78-6.54-2.34-9.53c-0.91-1.73-2.42-3.26-1.95-5.49c0.51-0.66,1.2-0.83,1.98-0.71c3.78,3.27,6.86,6.96,7.21,12.25
	c-0.1,1.82-0.69,3.54-1.09,5.3c-0.11,0.47-0.32,0.92-0.34,1.42c0.34-0.31,0.56-0.8,1.15-0.73c0.4,0.24,0.6,0.59,0.65,1.02
	c0.01,0.15,0.02,0.33,0.04,0.51c0.02-0.33,0.02-0.66-0.01-1.02c-0.45-1.86-0.08-3.4,1.6-4.48c3,1.91,0.55,4.96,1.5,7.21
	c0.09,0.75,1.06-0.12,0.45,0.17c-0.22,0.1-0.41-0.02-0.36-0.31c0.43-2.32-1.94-5.29,1.59-6.88c0.43,0.21,0.81,0.5,1.13,0.87
	c0.98,1.43,0.5,3.17,0.92,4.79c0.97-1.98,1.67-3.83,4.51-3.7c2.76,0.13,2.72-2.31,2.89-4.3c0.37-4.86-0.78-9.24-4.06-12.96
	c-0.54-0.81-0.97-1.67-1.21-2.63c-0.06-0.48-0.02-0.95,0.12-1.41c2.33-1.69,3.69,0.15,4.9,1.57c2.3,2.7,3.83,5.82,4.01,9.44
	c2.63-0.97,4.57-3.59,8.18-2.99c-2.3-4.54-5.79-7.14-8.94-10.03c-1.34-1.23-2.74-0.92-4.12-0.04c-1.7,1.08-3.36,1.49-4.94-0.2
	c-0.81-1.24-1.18-2.59-1.09-4.07c0.19-0.72,0.63-1.25,1.23-1.66c1.48-0.88,2.98-0.66,4.62-0.42c1.63,0.24,3.04-0.62,3.57-2.42
	c1.62-0.2,1.45,1.51,2.29,2.14c0.8,2.71,3.99,2.65,5.29,4.79c-1.31-2.53-4.72-2.81-5.73-5.64c-0.33-1.02,0.09-1.82,0.76-2.54
	c0.66-0.52,1.37-0.87,2.27-0.77c1.63,0.18,3.96,2.65,4.72,0.22c1.01-3.23,5.65-5.37,3.16-9.67c-0.22-0.42-0.34-0.86-0.38-1.33
	c0.03-0.47,0.17-0.91,0.38-1.32c1.8-3.1,5.71-3.35,7.93-5.88c0.46-0.12,0.89-0.08,1.31,0.15c0.5,0.51,0.66,1.15,0.63,1.84
	c-0.62,2.02-0.03,3.73,1.36,5.23c0.79,1.27,1.18,2.56,0.34,3.97c-1.07,0.91-2.18,0.52-3.28,0.09c-2.47-1.02-2.63,1.29-3.55,2.49
	c-2.32,5.66-1.2,11.39,3.17,15.32c1.01,0.91,1.61,2.09,2.61,2.96c0.28,0.5,0.3,1.03,0.11,1.56c0.27-0.1,0.44-0.31,0.51-0.63
	c0.39-0.17,0.79-0.21,1.2-0.15c1.27,0.19,1.83-0.2,1.29-1.52c-0.59-1.43-1.66-2.81-0.38-4.4c1.74-0.71,2.6,0.44,3.43,1.63
	c0.48,0.77,0.91,1.58,1.41,2.34c1.21,2.23,3.08,3.85,5.04,5.39c6.07,4.69,9.17,10.86,9.29,18.52c-0.12,1.47-0.02,3.24-1.85,3.62
	c-1.75,0.37-1.87-1.54-2.6-2.52c-0.71-0.95-1.57-1.7-2.58-2.28c-5.86-3.33-11.71-6.68-18.16-8.78c-1.6-0.15-3.18-0.41-4.76-0.68
	c-0.44-0.12-0.86-0.3-1.25-0.53c-2.7-2.29-4.17,1.28-6.37,1.36c-0.56,0.32-1.1,0.68-1.6,1.1c-1.99,1.76-1.23,4.88-3.26,6.61
	c-1.03,1.42-2.37,2.61-3.03,4.3c-1.35,5.28-3.54,10.68,2.31,14.83c0.26,0.42,0.35,0.87,0.26,1.35c-7.1,4.61-9.94,10.9-7.59,19.24
	c0.09,1.57-0.24,3.29-1.81,3.64c-1.88,0.43-2.3-1.6-2.73-2.85c-1.02-2.95-4.22-4.65-4.41-8.02c4.79-3.95,6.68-9.17,7.27-15.23
	c0.41-4.22,1.34-8.44,2.6-12.63c-2.71,7.08-10.17,10.69-12.88,17.87c-0.72,1.01-1.74,1.63-2.82,2.18c-3.72,1.12-4.56,5.94-8.56,6.7
	c-0.73,0.06-1.42-0.06-2.08-0.38c-0.65-0.43-0.9-1.07-0.97-1.81c-0.02-0.46,0.01-0.93,0.08-1.39c0.24-1.67,0.54-3.66-1.88-3.55
	c-1.7,0.07-1.89,1.96-2.09,3.41c-0.27,1.91,1.09,3.83-0.01,5.74c-0.33,0.34-0.73,0.57-1.2,0.67c-3.75-0.28-6.35-2.83-8.55-5.29
	c-2.54-2.84-5.17-3.72-8.66-2.87c-2-0.1-3.19-1.54-4.42-2.81c-1.72-1.77-3.81-1.57-5.94-1.34c-1.08-0.28-1.49-1.16-1.9-2.08
	c-1.47-3.25-3.07-3.54-5.3-0.61c-2.07,2.73-3.56,5.88-5.71,8.59c-1.4,2.27-4.93,3.13-4.42,6.67c-0.08,1.3,0.15,2.56,0.41,3.82
	C427.38,511.66,428.75,514.66,429.53,517.88z"/>
<path class="st1" d="M383.55,463.9c1-0.34,2-0.67,3-1.01c1.77-1.72,4.11-1.51,6.15-1.28c5.97,0.68,9.16-5.1,14.44-5.86
	c0.67,0.03-0.44-0.86-0.14-0.26c0.11,0.23-0.03,0.31-0.42,0.24c-2.53-0.41-2.53-0.42-1.77-2.26c0.02-0.05,0.35,0.09,0.47,0.02
	c0.22-0.13,0.11-0.24-0.27-0.23c-1.07,0.05-2.72,0.62-2.2-1.34c0.3-1.15,1.88-1.15,3.05-1.25c1.61-0.19,3.65,0.47,4.08-2.07
	c0.61-1.81,0.15-4.07,2.18-5.3c0.1-0.06,0.63-0.17,0.28-0.37c-3.43-1.97-1.57-4.46-0.55-6.69c0.81-1.78,2.14-3.32,2.65-5.27
	c0.25-2.94-0.63-6.14,1.99-8.52c1.17-1.23,3.25-1.62,3.41-3.76c1.26-3.86-0.08-6.82-3.17-9.18c-5.21-3.13-9.28-2.18-12.11,3.14
	c-0.86,1.61-1.67,3.11-3.12,4.23c-3.43,3.07-4.66,7.94-8.67,10.54c-0.47,0.06-0.92,0.01-1.36-0.15c-1.67-1.92-1.41-3.97,0.23-5.56
	c1.59-1.55,1.8-3,0.86-4.83c-0.43-1.65-2.76-3.29-0.01-4.94c2.58,1.93,4.78,2.12,6.15-1.37c0.45-0.22,1.04-0.23,1.38-0.54
	c6.1-5.47,6.1-5.47,13.32-7.26c-2.11-1.66-5.16-1.59-6.86-3.87c0.47-4.22,2.76-7.61,5-11.02c1.74-0.59,3.76-0.99,5.25-0.25
	c4.3,2.14,5.87,0.06,6.78-3.68c0.15-0.63,0.74-1.05,1.25-1.46c1.42-1.24,3.36-0.81,4.94-1.55c0.74-0.52,2.16-0.61,1.85-1.82
	c-0.22-0.84-1.38-0.55-2.16-0.46c-0.81,0.09-1.55,0.43-2.29,0.73c-0.81,0.36-1.62,0.72-2.5,0.92c-0.46,0.04-0.89-0.05-1.3-0.28
	c-0.28-0.43-0.22-0.81,0.16-1.14c1.01-1.88,2.96-3.44,2.02-5.98c4.87,0.44,7.49-4.51,11.98-4.99c2.03-0.09,3.12-1.44,4.02-3.03
	c3.59-2,7.25-3.11,11.14-0.74c0.19,0.43,0.27,0.88,0.24,1.35c-0.91,2.34-3.48,4.28-1.74,7.26c-0.13,1.42,0.56,3.15-0.94,4.09
	c-1,0.63-1.76-0.44-2.44-1.14c-0.66-0.87-1.3-1.75-1.98-2.59c-0.28-0.34-0.24-0.95-0.84-1.03c0,0.49-0.22,0.87-0.6,1.18
	c-3.36,0.88-5.93,2.58-7.03,6.12c-0.59,1.9-1.84,3.45-3.49,4.62c-4.33,0.92-6.24,4.08-7.36,7.97c-0.67,1.85-3.35,2.37-3.17,4.8
	c-0.62,3.4-3.35,5.94-3.81,9.46c2.37,0.41,4.54,1.2,7.15,0.27c2.97-1.05,5.11,0.33,5.2,3.84c-1.16,1.3-2.77,0.27-4.09,0.77
	c-2.65-1.4-1.61,1.55-2.55,2.16c-0.74,1.28-1.23,2.68-1.81,4.03c0.68-1.49,1.22-3.04,2.09-4.44c0.65-0.73,0.2-2.8,2.24-1.85
	c1.39,1.96,1.17,4.27,1.42,6.47c-0.09,1.04-0.68,1.75-1.48,2.33c-2.28,1.86-3.47,4.37-4.23,7.14c-0.24,0.86-0.54,1.69-0.77,2.55
	c-0.4,1.76,0.07,4.63-1.08,5.13c-4.16,1.81-0.4,4.8-1.49,6.92c-1.29,3.31-1.3,6.77-1.32,10.24c-0.01,1.48-1.12,4.05-1.36,3.82
	c-2.35-2.31-1,2.27-2.57,1.25c-1.54-1.18-0.23-3.37-1.44-4.63c1.17,4.15,1.16,8.52,2.07,12.76c0.44,2.15,0.34,4.32,0.35,6.49
	c-0.03,1.36-0.07,2.71-0.76,3.94c-1.46,1.47-2.23-0.01-3.18-0.74c-1.61-3.61-0.66-7.51-1.21-11.24c-0.19-1.26,0.21-2.9-1.23-3.56
	c-1.66-0.76-2.82,0.59-3.87,1.58c-2.05,1.92-4.31,3.7-5.55,6.32c-1.32,2.78-3.01,3.41-5.35,1.16c-0.85-0.82-1.82-1.42-2.83-2
	c-0.68-0.39-1.66-0.86-1.26-1.84c0.49-1.17,1.69-0.62,3.51-0.77c-4.19-0.13-7.2,3.73-10.69,0.77
	C383.18,464.72,383.2,464.3,383.55,463.9z"/>
<path class="st2" d="M465.56,362.96c-1.74-2.84-1.2-5.56,1.93-6.21c1.8-0.38,4.34-1.76,5.65-0.66c1.54,1.29-0.52,4.35,1.23,6.3
	c1.66-0.71,1.01-2.04,1.15-3.07c0.23-1.73-0.19-5.06,1.4-4.61c2.18,0.63,5.73-2.57,6.71,1.87c5.11-0.76,6.34,4.59,8.35,6.93
	c2.17,2.53,2.9,7.81,3.58,12.2c0-2.93,0-5.86,0-8.79c2.35,2.12,3.31,10.36,1.43,12.54c-1.34,1.56-2.68,0.86-3.9-0.14
	c-1.42-1.17-2.26-2.86-3.56-4.15c-0.45-0.65-0.62-1.36-0.37-2.13c1.38-1.53,0.85-3.33,0.83-4.68c0.23,0.73-0.02,1.88,0.01,3.01
	c-0.8,3.06-4.5,1.02-5.75,3.29c-0.44,0.55-0.82,1.13-1.12,1.77c-0.49,3.73-0.11,7.5-0.8,11.21c-0.39,2.06-0.91,3.58-3.36,1.93
	c-1.54-4.69-0.65-9.47-0.62-14.22c0.5-1.68,0.57-3.45,0.79-5.07c-1.03,0.78-1.21,3.31-3.42,2.62c-1.56-0.48-1.95-2.12-2.23-3.56
	c-0.32-1.65-0.82-3.16-2.2-4.22C469.79,363.33,466.78,365.5,465.56,362.96z"/>
<path class="st3" d="M489.53,374.93c1.4-0.83,2.03-0.08,2.59,1.14c0.69,1.5,1.59,3.71,3.24,3.27c2.26-0.6,1.13-3.14,1.09-4.77
	c-0.08-2.55,1.01-5.31-0.91-7.65c-1.27-3.3-0.16-5.58,2.99-6.99c1.63,1.33-1.05,4.55,2.26,5.14c2.4,0.97,4.34,2.4,5.07,5.03
	c0.4-0.01,0.78-0.02,1.17-0.06c4.59-0.43,4.46,2.15,3.4,5.33c-1.96,1.15-4.23,0.46-6.27,1.03c-2.08,0.58-4.1,1.38-4.54,3.9
	c0.85,1.09,1.14,2.59,3.33,2.04c2.06-0.53,4.26,0.23,6.28,1.04c0.37,0.27,0.59,0.64,0.65,1.09c-0.66,2.67-2.85,2.29-4.8,2.41
	c-2,0.6-3.4,3.16-5.98,1.85c-1.03-1.45-0.64-3.67-3-4.94c0.77,3.14,0.55,6.03,0.9,8.89c0.35,2.13,0.38,4.11-2.29,4.79
	c-0.49-0.01-0.95-0.15-1.36-0.42c-0.32-1.06-0.58-2.13-0.35-2.52c-0.46,1.17,0.58,3.79-1.88,4.98c-5.92,0.18-1.17-3.72-2.05-5.24
	c-1.23,2.2-0.32,5.07-1.74,8.1c-2.78-2.41-2.51-5.47-3.09-8.17c0-5.57-0.42-11.22,2.63-16.96c1.95,2.96,0.66,5.61,1.16,7.46
	c-0.15-2.7-0.02-5.99,1.18-9.14C489.32,375.35,489.43,375.14,489.53,374.93z"/>
<path class="st4" d="M564.56,381.92c-0.19-4.88-3.4-8.86-3.93-13.72c-0.38-3.5,0.17-5.28,3.98-5.17c1.14,0.03,2.31-0.18,3.43-0.42
	c0.94-0.2,1.97-1.04,2.75-0.12c0.98,1.14-0.16,2.21-0.67,3.12c-2.38,4.21-2.82,8.73-2.63,13.45c0.15,3.71,1.51,2.34,3.03,0.9
	c0.39,0.36,0.63,0.79,0.74,1.31c-0.73,4.7-3.29,8.89-3.86,13.64c-0.63,1.62-0.45,3.5-1.59,4.95c-0.15,0.07-0.39,0.24-0.44,0.19
	c-4.15-3.57-9.33-5.18-14.18-7.4c-0.18-0.45-0.23-0.93-0.16-1.41c0.28-1.09,1.33-1.28,2.41-1.99c-2.55-1.78-6.64-1.83-6.7-6.03
	c0.07-0.45,0.23-0.87,0.49-1.24c2.03-0.71,2.88,1.72,4.64,1.74c3.78,1.7,7.26,3.74,9.13,7.94
	C560.68,387.74,565.92,386.09,564.56,381.92z"/>
<path class="st5" d="M359.57,481.91c0.44,3.32-1.03,6.82,0.98,9.98c-1.16,2.39,2.31,4.1,0.96,6.52c0.41-0.06,0.82-0.15,1.22-0.24
	c1.51-0.35,2.95-0.48,3.87,1.26c-0.95,1.55-2.6,0.73-3.71,1.21c1.84,0.05,3.75-0.74,5.72-0.63c0.83,0.05,1.8,0.35,1.87,1.31
	c0.08,0.98-0.87,1.43-1.67,1.46c-2.79,0.09-5.53,0.56-8.1,0.95c2.14,0.22,4.47-1.49,6.81-0.12c0.29,0.4,0.36,0.85,0.24,1.33
	c-1.53,1.7-3.66,0.78-5.23,1.45c0.82,2.86,3.88,0.79,5.63,2.09c1.38,0.28-2.36,2.62,0.94,2.28c0.6-0.06,0.52,1.2-0.12,1.46
	c-2.1,0.87-2.24,3.09-3.38,4.61c-1.99,1.97-4,0.92-6.01,0.03c-3.87-5.04-3.3-11.01-2.89-16.68
	C357.13,494.07,358.56,488.01,359.57,481.91z"/>
<path class="st4" d="M583.52,364.96c2.18,2.26,5.33,3.33,7.97,3.57c3.87,0.35,6.1-2.82,7.04-6.55c3.07,0.89,0.83,2.91,1.42,4.3
	c1.04-0.52-1.22-3.4,1.56-3.3c-0.79,2.74,3.47,4.01,2.01,6.95c2.26,3.56,1.76-1.41,3.01-0.97c1.18,3.01,3.16,3.74,5.98,2.09
	c0.59,0.55,0.64,1.22,0.42,1.95c-0.46,0.88-1.23,1.42-2.07,1.88c-2.1,0.94-4.01,2.1-4.99,4.34c-2.27,2.02-3.07-0.02-4.2-1.45
	c-2.34-2.96-5.09-5.28-9.15-5.3c-1.53-0.44-2.89-2.04-4.7-0.68c-1.69-0.89-3.67-0.45-5.4-1.16c-1.44-0.72-1.31-1.98-1.14-3.26
	C581.71,366.29,581.53,364.61,583.52,364.96z"/>
<path class="st6" d="M512.55,352.92c1.72,1.83,0.83,3.96,0.82,6.02c-1.29-0.18-0.45-1.54-1.48-2c-1.45,3.35,1.7,6.53,0.15,10.3
	c-0.92-4.06-1.75-7.69-2.57-11.33c-0.49,6.18,2.16,11.91,2.07,18c0.23,0.21,0.33,0.45,0.3,0.7c-0.03,0.26-0.08,0.39-0.15,0.39
	c-0.4,0.21-0.78,0.17-1.15-0.07c-0.2-2.47-1.15-4.18-3.99-4c-2.89-2.86,0.59-6.2-0.18-8.5c0.09,0.11-0.15,0.85-0.68,1.57
	c-2.09,0.33-2.12-1.47-2.76-2.65c-0.21-0.67-0.27-1.34-0.18-2.03c0.45-1.2,1.59-2.39,0.05-3.63c-0.37-0.54-0.65-1.09-0.28-1.74
	c0.39-0.95,1.06-1.62,2.02-2.01c1.2-0.62,2.18-1.55,3.31-2.28c0.33,0.07,0.61,0.22,0.82,0.46c0.58,0.63,0.14,1.6,0.73,2.23
	c-0.38-0.56-0.43-1.21-0.23-1.81c0.22-0.65,0.74-1.03,1.47-0.96C512.85,349.78,511.29,352.15,512.55,352.92z"/>
<path class="st7" d="M564.56,381.92c2.97,0.16,0.83,2.65,1.71,3.76c-4.13,0.81-2.76,5.57-5.58,7.85c-1.53-4.85-5.93-6.63-9.16-9.6
	c-0.28-0.43-0.47-0.95-0.28-1.39c0.94-2.16-0.62-5.85,2.35-6.44c2.94-0.58,2.82,3.4,4.57,4.96c-0.76-3.32-3.43-6.39-1.64-10.14
	c2.28-1.51,1.65,0.63,2.09,1.6C560.17,375.92,559.76,380.58,564.56,381.92z"/>
<path class="st1" d="M391.53,426.9c0.34,0,0.67,0,1.01,0.01c1.35,1.64,0.22,3.23-0.08,4.84c-0.59,1.53-0.73,3.12-0.63,4.75
	c0.05,0.94,0.21,1.88,0.08,2.83c-0.91,1.81-2.56,2.12-4.36,2.15c-0.75-0.24-1.37-0.58-1.04-1.55c-0.15-0.28-0.24-0.65-0.47-0.84
	c-6.86-5.55-6.53-8.57,1.5-13.2C389.16,425.11,390.29,426.23,391.53,426.9z"/>
<path class="st8" d="M582.52,367.92c-0.08,0.67-1.11,1.36,0.03,2.02c-3.73,3.97-7.08,8.34-12.02,11c0-0.33,0-0.66,0-0.98
	c2.62-4.87,0.46-10.31,1.88-15.41c0.94-3.38,1.66-2.7,3.17-0.62c0.42,0.71-0.07,1.43,0.03,2.15c0.17-0.77,0.35-1.54,0.91-2.15
	c1.33-1.18,2.66,1.7,4,0.01C582.42,364.63,581.07,366.99,582.52,367.92z"/>
<path class="st3" d="M550.56,371.92c-3.3,2.63-0.97,6.97-3.02,9.97c-0.01,0.35-0.01,0.7-0.02,1.05c-3.16-3.03-6.04-6.42-10.97-6.64
	c-1.23-0.06-2.43-1.01-2.96-2.37c1.65,0,3.29,0.01,4.93,0.01c2.15-0.24,4.1-1.07,6.01-2.03c1.41-0.69,2.83-1.35,4.22-2.08
	C552.35,367.95,550.22,371.01,550.56,371.92z"/>
<path class="st9" d="M437.54,367.96c-1.09,2.98-6.4,1.69-6.13,6.06c-1.95-0.36-3.9-0.71-5.85-1.07c0.97-3.74,1.91-7.48,2.91-11.21
	c0.42-1.58,0.79-3.4,3.1-1.81c-0.91,4.15-0.11,7.09,4.98,6.96C436.88,367.25,437.21,367.6,437.54,367.96z"/>
<path class="st3" d="M452.54,364.93c1.17-3.43,4.77,0.02,6.39-2.31c-0.68-1.53-2.46-1.24-3.54-2.09c-0.03-0.02,0.09-0.35,0.2-0.39
	c0.3-0.11,0.63-0.15,0.95-0.22c1.58-0.63,2.97-1.85,4.26,0.84c0.67,1.41,2.14,3.75,4.75,2.19c1.83,1.36,4.31-1.38,5.98,0.97
	c-0.07,0.21-0.14,0.42-0.21,0.63c-2.62,1.29-2.7,4.12-3.81,6.32C462.92,367.91,457.69,366.52,452.54,364.93L452.54,364.93z"/>
<path class="st5" d="M640.52,374.92c0,0.35,0,0.7,0,1.04c-1.04,0.89-2.29,0.74-3.2,0.07c-3.64-2.67-7.91-2.8-12.12-3.24
	c-0.77-0.27-1.39-0.73-1.84-1.42c-0.27-0.52-0.21-1,0.18-1.44c3.91,0.12,6.87-2.09,9.95-4.02c-0.58-1.13-0.84-2.09,1.01-1.95
	C633.97,369.01,638.1,371.5,640.52,374.92z"/>
<path class="st10" d="M519.54,372.92c0.13,1.41-0.45,2.98,1.02,4.24c3.83-1.8-0.6-5.06,1.46-7.06c0.44,0.83,0.98,1.83,1.51,2.83
	c-0.21,2.22,2.33,1.67,3.01,3c-1.69,0.98-3.97,1.36-4,3.99c-0.31,0.35-0.69,0.56-1.15,0.62c-0.45-0.01-0.89-0.12-1.3-0.3
	c-1.33-0.76-2.54-1.71-3.88-2.45c-0.6-0.27-1.2-0.51-1.86-0.64c-1.15-0.48-2.98-0.09-2.85-2.21c0.01-0.35,0.02-0.69,0.03-1.04
	c1.58-0.95,0.56-2.78,1.94-4.98c-1.17,5.2,3.68,3.58,4.79,5.98C518.69,374.25,519.11,373.58,519.54,372.92z"/>
<path class="st11" d="M395.55,404.92c0.22,2.41,2.38,3.85,3.03,6.05c1.92,3.39-1.46,2.9-2.82,3.63c-2.9,1.56-2.06-1.82-3.2-2.64
	c0.01-1.58,0.97-2.97,0.32-4.78C392.08,404.95,394.05,404.98,395.55,404.92z"/>
<path class="st12" d="M503.51,354.93c1.32,1.32,3.01,2.64,0.03,4c-1.3,1.63-1.52,3.75-2.49,5.54c-0.17,0.15-0.34,0.31-0.51,0.46
	c-1.44,1.5-2.8,2.1-2.9-0.76c-0.05-1.4,0.58-2.82,0.9-4.24c-0.17-1.75,1.45-2.6,2-3.99C501.33,355.03,502.68,355.75,503.51,354.93z"
	/>
<path class="st13" d="M512.55,352.92c-0.74-2.54-3.94-0.95-4.99-2.98c-0.3-0.22-0.41-0.44-0.32-0.66c0.09-0.23,0.19-0.34,0.29-0.34
	c4.64-1.09,8.14-4.31,12.28-7.33c-0.72,5.15-6.39,5.2-7.26,9.31C512.55,351.59,512.55,352.26,512.55,352.92z"/>
<path class="st14" d="M517.54,361.93c-1.41,1.75-0.57,4.1-1.58,6.29c-1.01-3.39-0.16-6.34,0.52-9.3c0-1.6,0-3.21,0-4.81
	c0.35,0,0.71-0.01,1.06-0.01C517.54,356.7,517.54,359.31,517.54,361.93z"/>
<path class="st5" d="M623.48,370.91c0.34,0.33,0.69,0.66,1.03,0.99c-1.62,1.67-3.85,1.05-5.78,1.54c-0.44,0.05-0.87,0.03-1.31-0.02
	c-1.59-0.6-3.34,0.29-4.91-0.52c0-0.62-0.01-1.24-0.01-1.86c1.67-0.04,3.34-0.08,5.01-0.12
	C619.5,370.16,621.49,370.18,623.48,370.91z"/>
<path class="st15" d="M384.55,447.92c0,0.32,0.01,0.65,0.01,0.97c-2.41-0.18-4.32,3.02-6.99,1.02c-0.01-0.32-0.02-0.65-0.03-0.97
	c0.67-0.68,1.35-1.36,2.02-2.03C381.49,445.93,382.9,447.5,384.55,447.92z"/>
<path class="st16" d="M520.53,357.94c1.56,3.33,1.58,6.67,0,10c-0.01-0.67-0.01-1.34-0.02-2.01
	C520.52,363.26,520.53,360.6,520.53,357.94z"/>
<path class="st17" d="M507.53,348.94c0.01,0.33,0.02,0.67,0.03,1.01c-0.12,2.02-1.57,2.01-3.02,1.99
	C505.2,350.61,506.17,349.58,507.53,348.94z"/>
<path class="st14" d="M420.56,382.92c-1.01-0.75-2.02,3.1-3.02,0C418.54,381.65,419.55,381.61,420.56,382.92z"/>
<path class="st7" d="M423.55,379.91c0,1.45-0.67,2.45-2,3.01c-0.1-1.72,0.18-3.24,2-4C423.55,379.25,423.55,379.58,423.55,379.91z"
	/>
<path class="st1" d="M563.52,516.89c-1.68,1.49-3.35,1.48-5.03,0c-1.58-1.62-1.13-3.7-1.31-5.65c-0.3-3.29-0.46-6.63-2.58-9.43
	c-0.86-1.13-2.74-2.05-1.96-3.65c0.84-1.73,2.87-1.15,4.48-1.18c2.7,0.33,2.96,2.7,3.83,4.51c0.59-2.55,0.91-5.12,2.15-7.42
	c2.54-0.57,5.26-0.47,7.54-2.02c1.58-1.26,1.92-3.56,3.82-4.55c0.95-0.34,1.95-0.39,2.93-0.51c3.36-0.41,5.62-1.67,5.35-5.62
	c-0.11-1.5,0.55-3.43,2.19-3.42c1.85,0.01,3.4,1.26,2.79,3.65c-0.98,1.43-0.89,3.09-1.1,4.72c1.13,0.09,1.99-0.43,3.45-0.89
	c-1.79-0.68-3.68-1.12-2.68-3.34c1.11-3.38,5.04-5.41,4.62-9.54c0.38-0.97,1.15-1.4,2.12-1.57c1.34-0.16,2.59,0.24,3.82,0.7
	c1.11,0.42,0.98-0.24,0.86-0.94c-0.06-1.86,1.71-2.29,2.59-3.41c0.65-0.75,2.62-0.19,1.92-2.34c-0.56-1.73-0.29-3.56,1.81-4.39
	c5.09-2.71,5.29-7.67,5.7-12.54c0.61-1.29,1.37-2.46,2.53-3.34c0.73-0.17,1.27,0.12,1.64,0.71c0.05,0.13,0.08,0.31,0.18,0.43
	c0.34,0.42,0.46,0.33,0.36-0.26c-0.03-0.16-0.01-0.34,0.02-0.5c0.38-1.6,0.49-3.71,2.28-4.1c2.29-0.5,1.16,2.8,2.9,3.29
	c0.41,0.1,0.76,0.3,1.05,0.6c0.16,0.42,0.2,0.84,0.15,1.28c-1.5,3.43,0.12,7.11-0.86,10.58c-1.29,1.09-2.84,1.72-4.29,2.52
	c-6.03,3.33-9.21,8.08-9.04,15.32c0.14,5.99,0.77,11.91,1.11,17.87c-0.05,1.31-0.08,2.63-0.64,3.85c-0.25,0.48-0.65,0.79-1.18,0.92
	c-0.79-0.01-1.46-0.34-2.09-0.78c-2.21-2.23-5.61-2.54-7.82-4.79c-0.3-2.68,1.52-2.58,3.19-2.24c2.35,0.48,3.97-0.01,4.28-2.31
	c-3.23,3.14-7.79,1.61-11.84,2.24c-1.72,0.27-0.89,1.25-1.32,1.83c-3.68,1.63-7.69,1.59-11.58,2.36c4.36,0.8,8.35,2.86,13.12-0.01
	c2.1-1.26,5.95,0.82,8.57,2.66c0.46,0.57,0.63,1.23,0.59,1.95c-0.07,0.46-0.22,0.89-0.41,1.31c-0.68,1.37-0.34,3.09-1.43,4.29
	c0.51,0.82,2.06,0.33,2.12,1.41c0.06,1.21-1.11,1.56-2.07,1.71c-3.76,0.6-7.57,0.19-11.36,0.35c-2.04-0.21-4.38,0.46-5.7-1.89
	c1.33-1.93,3.29-0.4,4.54-0.99c-4.13-0.44-8.54,1.81-13.04,0.42c-0.07-0.02-0.26,0.11-0.25,0.14c0.03,0.16,0.11,0.31,0.17,0.46
	c-0.11,0.32-0.52,0.62-0.5,0.77c0.27,1.44-4.19-1.22-1.74,2.02c-1.42,1.13-3.16,0.88-4.78,1.11c-2.25,0.93-5.38,1.24-3.11,5.07
	C565.08,515.18,563.96,516.07,563.52,516.89z"/>
<path class="st10" d="M530.55,515.88c-0.52-6.68-3.34-9.51-10-10c-0.64-0.54-0.57-1.18-0.24-1.85c0.49-0.55,1.11-0.74,1.83-0.61
	c0.37,0.37,0.73-0.12,1.13-1.55c0.38-0.25,0.79-0.33,1.24-0.23c0.36,0.24,0.65,0.55,0.9,0.9c0.67,1.34,1.99,1.99,3.1,2.85
	c0.83-0.08-0.43,1.97,1.16,1.13c0.33-0.06,0.67-0.1,0.99-0.15c-1.1-5.32,0.42-10.78-1.04-16.05c-0.17-0.16-0.32-0.33-0.49-0.5
	c-0.18-0.16-0.33-0.34-0.51-0.5c-2.07-4.15-1.11-5.86,3.66-6.62c0.71,1.56,1.28,2.63,3.57,2.94c2.66,0.37,5.55,2.05,4.25,5.96
	c-0.29,3.37,0.18,6.76-0.2,10.13c0.42-3.52-0.25-7.09,0.44-10.6c4.58-1.4,7.11-0.47,9.45,3.45c-1.57,1.88-0.25,4.23-0.99,6.23
	c-0.44,0.35-0.91,0.39-1.4,0.12c-0.74-1.7-0.13-3.41-0.35-4.92c-0.14,1.04,0.11,2.39-0.16,3.67c-1.86,1.08-1.61-0.8-2.33-1.25
	c0.64,2.61-0.89,5.33-0.54,8.09c0.28-1.03-0.36-2.36,0.72-3.7c1.65,0.36,1.6,2.79,3.28,3.09c0.34,2.62-0.67,4.97-1.27,7.4
	c0.57-2.37,1.56-4.65,1.36-7.19c0.36-1.27-0.08-2.59,0.3-3.85c1.28-2.25,0.11-4.84,0.98-7.15c2.7-0.68,2.24,1.11,2.39,2.79
	c0.38,4.12-0.18,8.13-0.86,12.15c0.01,1.29-0.04,2.57-0.38,3.83c-0.55,2.59-5.14,4.5-7.61,3.16c-1.09-0.59-1.83-0.33-2.37,0.83
	c-1.18-1.16-1.22-2.57-0.91-4.06c0.14-0.45,0.36-0.85,0.66-1.21c0.76-0.39,0.44-1.39,1.03-1.88c-0.76,0.23-0.27,1.4-1.17,1.53
	c-0.49-0.04-0.86-0.27-1.15-0.65c-0.23-0.44-0.38-0.91-0.37-1.4c0.03-1.07,0.04-1.04-1.02-1.35c-0.29-0.09-0.4-0.46-0.51-0.78
	c-0.15-0.42,0.23-1.02-0.41-1.28c1.52,3.72,3.38,7.45-0.2,11.09C534.99,515.84,531.69,519.07,530.55,515.88z"/>
<path class="st4" d="M490.55,501.92c-1.56,1.09-0.35,1.93,0.25,2.83c2.63,3.93,5.03,8.04,8.72,11.13c-2,2.62-4.4,2.44-6.99,1.01
	c-0.88-3.01-2.74-5.63-3.47-8.71c-0.08-0.32-0.19-1-0.21-0.95c-1.68,4.42-5.02-1.3-7.25,1.27c-1.89,2.17-3.82,4.15-4.38,7.07
	c-0.1,0.5-0.34,0.93-0.71,1.29c-0.99,0.34-1.97,0.68-2.96,1.02c-1.04-0.64-1.61-1.44-1.6-2.8c0.01-5.66-2.92-7.35-7.94-4.67
	c-2.43,1.3-4.43,3.5-7.48,3.47c-2.46,1.1-3.55,4.58-6.98,4c-1.73-1.72-6.26-0.22-5.8-3.83c0.34-2.7,3.94-1.22,5.94-1.96
	c3.82-1.42,6.03-4.74,8.19-8.01c3.56-3.12,7.25,0.3,10.88-0.19c0.56-0.08,1.19,0.58,1.8,0c0.33,0,0.66,0,0.99,0
	c1.19-1.76,2.17-3.86,4.94-3c0.68,0,1.36,0.01,2.04,0.01c1.08,1.41,0.03,2.02-0.98,2.68c-1.17,0.75-2.77,1.06-3.23,3.49
	c5.46-3.66,11.05-6.28,12.19-13.15c1-0.34,1.99-0.68,2.99-1.02c0.88,2.94,0.55,6.13,1.88,8.97c-0.12,0.05-0.24,0.14-0.36,0.15
	C490.86,502.02,490.7,501.96,490.55,501.92z"/>
<path class="st7" d="M575.56,510.86c-2.06-0.09-4-1.73-6.56-0.4c3.5,2.98,8.05,1.55,11.54,3.46c0.33,0.36,0.49,0.79,0.44,1.28
	c-0.15,0.45-0.41,0.83-0.78,1.13c-1.41,0.57-2.43,0.55-3.75-0.74c-1.01-0.99-0.17,0.72-0.57,0.99c-0.22,0.69-0.91,0.88-1.37,1.32
	c-3.38-3.46-7.46,0.7-11-1c0.48-2.27-0.75-3.8-3.11-5.48c2.96-0.47,4.2-2.49,6.15-3.49c1.99,0.71,3.97,0.87,5.94-0.06
	c-0.65-0.45-1.29-0.89-2.35-1.63c1.5-0.72,3.45,0.22,4.36-1.34c3.01-0.76,6.02-0.81,9.03,0.02c1.77,1.78,4.02,0.63,6.02,1
	c3.41,2.21,7.36,0.06,11.07,1.35c-2.86,2.19-6.06,1.51-9.11,1.62c-4.33-0.83-8.67-0.83-13,0c-0.33,0.33-0.65,0.66-0.98,0.98
	C577.07,510.6,576.05,510.19,575.56,510.86z"/>
<path class="st4" d="M629.53,384.91c3.41,5.07,4.6,8.42,5.35,14.97c1.36-0.59-0.07-2.34,1.46-3.06c0.09,1.69,0.18,3.29,0.27,4.97
	c1.83-0.89,0.11-2.72,1.42-3.63c0.04,0.03,0.38,0.16,0.38,0.29c-0.01,2.01,0.2,4.01,1.07,5.83c0.9,1.88,1.3-0.46,2.02-0.35
	c-0.14,1.38,0.47,2.95-1,4.01c-2.55,1.92-5.87,2.97-7.11,6.35c-1.41,0.58-3.29,0.45-3.06-1.11c0.41-2.8-1.73-3.48-2.99-4.94
	c-1.37-1.9-5.25-3.74-0.17-5.83c1.79,0.47,2.67,2.48,5,2.79c0.32-6.27-1.06-11.95-4.42-17.25c-1.32-2.09-3.78-3.95-2.29-7.01
	c1.35-2.25,2.66,1.91,4.01,0.02C630.27,382.26,630.21,383.58,629.53,384.91z"/>
<path class="st3" d="M641.5,488.86c-2.68-1.68-5.35-2.72-7.99,0.06c-0.92-0.56-1.36-1.4-1.45-2.44c0.11-1.03,0.52-2.4,1.43-2.4
	c4.38,0.02,3.59-2.94,3.8-5.71c0.54-6.98-2.11-13.37-3.36-20.02c1.49-4.01,4.54-3.16,7.55-2.4
	C639.54,466.92,642.16,477.89,641.5,488.86z"/>
<path class="st3" d="M601.52,515.91c5.5-0.03,9.28-4.49,8.9-10.69c-0.09-1.45-0.62-2.88-0.94-4.32c-0.34-1.05,0.29-1.23,1.12-1.24
	c2.19,2.36,4.19,4.94,7.25,6.32c0.16,0.48,0.34,1.2,0.03,1.41c-2.95,2.03-2.02,3.54,0.93,4.66c-1.44,2.04-3.15,1.08-4.61,1.29
	c0.83,0.2,1.71,0.04,2.56,0.06c1.23,0.03,2.48,0.2,2.72,1.59c0.29,1.67-1.19,1.68-2.28,1.93c-0.67,0.16-1.22,0.48-1.7,0.95
	c-3.41,0.01-6.81,0.04-10.22,0.01C603.72,517.87,601.86,518.3,601.52,515.91z"/>
<path class="st4" d="M628.52,497.91c-0.63,3.75,0.99,7.29,0.98,10.98c-0.09,0.2-0.18,0.39-0.28,0.59c-1.34,0.65-2.93,0.9-3.72,2.4
	c-1.13,3.4-1.49,7.67-6.98,6.01c0.89-2.74,2.21-5.34,0.39-8.36c-1.52-2.52,1.06-2.81,2.51-3.61c-0.01-0.01,4.58-7.15,4.57-7.16
	c0.34-1.3,1.01-2.2,2.52-2.08c0.29,0.27,0.39,0.54,0.29,0.81C628.71,497.77,628.61,497.91,628.52,497.91z"/>
<path class="st3" d="M641.51,444.91c-0.71-0.61-1.34-1.38-2.15-1.79c-0.56-0.28-1.62-0.69-1.91,0.36c-0.1,0.35,0.69,0.95,1.07,1.43
	c-1.4,1.3-3.39,1.61-4.38,0.29c-1.15-1.53-2.41-3.81-1.21-5.78c1.35-2.22,0.31-3.2-1.22-4.43c-2.38-1.9-3.54-4.25-2.18-7.31
	c0.7-0.34,1.36-0.33,1.94,0.24c0.05,0.82-0.07,2.31,0.17,2.37c5.58,1.42,5.12,7.79,8.85,10.65
	C641.22,442.16,641.66,443.46,641.51,444.91z"/>
<path class="st18" d="M621.53,506.86c-0.69,0.79-3.29,0.58-1.81,2.45c2.74,3.46,1.07,5.99-1.2,8.58c-1.01,0-2.01-0.01-3.02-0.01
	c-0.24-2.37,2.62-1.39,3.26-2.88c-1.73-2.05-4.21-0.42-6.73-1.73c2.21-0.24,3.83-0.41,5.59-0.6c-1.21-1.42-4.13-0.43-4.23-2.52
	c-0.09-1.91,2.41-1.88,3.64-2.87c0.32-0.25,0.32-0.89,0.47-1.36C619.16,504.87,620.71,504.3,621.53,506.86z"/>
<path class="st10" d="M549.52,510.91c2.28-1.64,0.53-5.87,4.29-6.62c0.49-0.1,0.81-1.19,1.53-0.46c0.3,0.31,0.55,1.23,0.46,1.28
	c-4.52,2.84-1.63,7.42-2.64,11.06c-0.08,0.28-0.42,0.48-0.63,0.73c-0.67-1-1.33-2-2-3C549.36,513.19,549.56,512.01,549.52,510.91z"
	/>
<path class="st19" d="M482.53,516.9c0.74-2.47,5.21-1.72,4.08-5.65c3.08,1.32,3.26,4.75,5.93,5.65
	C489.2,518.53,485.87,517.6,482.53,516.9z"/>
<path class="st20" d="M629.5,508.89c1.64,1.29,2,3.35,3.03,5c0.29,3.44-2.62,2.39-4.26,2.84c-0.83,0.23-0.95-0.23,0.21-3.84
	c-0.75-1.62,0.38-2.75,1.04-4L629.5,508.89z"/>
<path class="st4" d="M637.5,417.9c1.34,0.34,2.68,0.67,4.01,1.01c-0.34,2,0.83,4.26-1,6.02C639.55,422.56,637.83,420.53,637.5,417.9
	z"/>
<path class="st17" d="M386.56,517.89c4.33-1.62,8.65-1.62,12.98,0C395.22,517.89,390.89,517.89,386.56,517.89z"/>
<path class="st21" d="M537.55,517.88c1.51-1.72,0.17-4.37,1.98-5.99c0.32,0,0.64,0,0.97,0c0.27,0.22,0.37,0.44,0.28,0.67
	c-0.08,0.23-0.17,0.34-0.26,0.34l0.01-0.02c-1.26,1.48,0.2,3.51-1.02,5C538.86,517.88,538.21,517.88,537.55,517.88z"/>
<path class="st5" d="M575.53,516.87c1.37,0.17,2.94-0.45,3.99,1.02c-1.67,0-3.33,0-5,0C574.86,517.55,575.19,517.21,575.53,516.87z"
	/>
<path class="st14" d="M531.55,418.92c0.32,0,0.64,0,0.96,0c1.13,2.49,0.15,5.11,0.51,7.31c0.38-2.2-0.58-4.83,0.51-7.32
	c2.26,0.64,0.61,2.37,0.9,3.55c0.34,1.37,0.08,2.89,0.87,4.38c0.15-2.31,0.3-4.63,0.45-6.94c0.19,0,0.38,0.01,0.57,0.01
	c0.12,2.26,0.24,4.52,0.36,6.78c0.82-2.85,1.04-5.8,2.23-8.65c1.35,0.91-0.09,3.14,1.83,4.26c1.8,2.35-2.42,3.76-0.8,6.16
	c0.86-2.18,1.68-4.27,0.8-6.16c-0.79-2.87,2.52-3.16,2.28-5.44c1.85,4.41-2.53,8.79,0.49,13.03c0.8,0.12,1.39,0.55,1.83,1.21
	c0.95,2.11-0.53,2.45-2.03,2.85c-1.28,0.34-2.52-0.7-3.79-0.04c-3-1.12-6.48-1.48-8-4.98c0.16-1.46-0.3-2.76-1.01-3.99
	c-0.01-0.23-0.02-0.46-0.03-0.69C530.17,422.33,530.48,420.55,531.55,418.92z"/>
<path class="st3" d="M533.53,471.9c0.33,0.01,0.67,0.01,1,0.02c0.93,0.55,2.87,0.37,1.76,2.41c-2.91,1.68-6.41,0.19-9.33,1.74
	c-5.68,3,0.35,4.05,1,5.99c-2.25,2.58-5.38,3.78-8.3,5.32c-1.99,0.16-2.79-0.54-1.83-2.52c1.31-2.18,2.48-4.4,2.32-7.07
	c-0.17-3.96-0.19-7.91-0.09-11.86c0.05-1.79-0.02-3.66,1.51-5.03c0.31,0,0.63,0,0.94,0c0.54,0.89,2.37,0.65,2.27,1.57
	c-0.53,5.05,3.02,6.18,6.63,7.43C532.34,470.22,532.66,471.39,533.53,471.9z"/>
<path class="st4" d="M451.55,458.86c0-0.64,0-1.29,0-1.93c0,0,0-0.02,0-0.02c0.69-2.6,1.81-4.73,4.78-5.47
	c1.44-0.36,2.49-1.55,3.03-3.04c0.91-2.09,1.31-4.09,4.85-3.29c1.94,0.44,5.12-0.94,5.8-4.19c0.37-1.74,0.73-3.63,2.83-4.28
	c1.17,0.28,1.37,1.17,1.39,2.17c-0.36,3.19-1.05,6.39,0.49,9.49c0.18,0.45,0.24,0.91,0.17,1.38c-0.26,0.42-0.65,0.64-1.13,0.7
	c-2.43,0.8-5.01,0.63-7.47,1.21c-2.67,0.89-5.13,2.23-7.58,3.6c-0.34,0.25-0.7,0.47-1.05,0.7c-1.48,0.83-2.69,1.95-3.66,3.34
	c-0.47,0.51-1.01,0.88-1.71,0.99C451.56,460.01,450.93,459.76,451.55,458.86z"/>
<path class="st10" d="M433.53,432.92c0.34,0.34,0.67,0.67,1.01,1.01c-1.24,0.79-2.77,1.41-2.29,3.33c1.06,4.25-1.44,4.82-4.71,4.65
	c-0.82-2.47-0.6-2.34,0.9-4.88c0.75-1.27-1.02-2.79-0.76-4.48c0.24-0.48-0.87-0.18-0.21-0.1c0.2,0.02,0.11,0.16,0.01,0.5
	c-0.54,1.78-1.24,3.02-2.83,0.8c-0.78-1.09-1.07-2.42-1.22-3.76c-0.71-4.18,3.54-6.95,3.12-11.05c0.83-0.04,1.59-0.23,2.03-1.04
	c2.57,0.09,1.86,2.18,2.16,3.61c0.25,1.18-0.62,2.69,1.1,3.4C433.08,427.44,429.87,430.91,433.53,432.92z"/>
<path class="st7" d="M530.51,449.92c-7.01-2.59-10.47-13.6-5.99-19.03c0.36,0.32,0.62,0.7,0.77,1.16c-0.74,2.4,1.44,4.64,0.55,6.83
	c0.93-1.6-0.44-3.2-0.63-4.91c0.61-1.16-0.02-3.26,2.34-3.08l-0.01,0.01c0.72,1.48,0.93,3.12,1.38,4.68
	c0.15,2.18-0.61,4.24-0.86,5.57c0.05,0.22,0.07-0.36,0.4-0.89c0.74-1.26,1.49-2.4,2.85-0.58
	C531.97,443.17,532.78,446.67,530.51,449.92z"/>
<path class="st5" d="M520.53,425.91c-3.08,2.98-6.3,5.74-10.39,7.32c-1,0.39-2.2,1.04-1.99,2.47c0.2,1.38,1.93,0.1,2.38,1.21
	c-0.33,0.67-0.67,1.33-1,2c0.28,0.23,0.37,0.46,0.27,0.68c-0.1,0.22-0.19,0.33-0.29,0.33c-0.66-0.67-1.32-1.34-1.98-2.01
	c-2.16,0.98-3.62,0.58-3.99-2c3.33-7.26,11.28-7.41,16.98-11.02C520.52,425.23,520.53,425.57,520.53,425.91z"/>
<path class="st5" d="M460.54,471.9c-0.63-1.89-3.72-2.73-2.07-5.58c1.7-0.08,1.21,2.29,2.52,2.79c0.08,0.03,0.32-0.14,0.36-0.26
	c0.1-0.31,0.13-0.63,0.19-0.95c1.8,2.07,3.62,4.12,4,7c-0.37,2.26-2.71,3.74-1.78,6.74c0.62,1.99-1.38,0.23-2.19,0.28
	c-0.55-3.53-3.96-2.77-6.04-4.02l0,0c0.67-0.67,1.33-1.34,2-2c0.21-0.09,0.42-0.18,0.64-0.27c1.36,0.04,2.95,0.62,3.84-0.87
	c0.64-1.07-0.75-1.5-1.18-2.25C460.74,472.31,460.64,472.11,460.54,471.9z"/>
<path class="st5" d="M413.54,482.91c-1.91-3.61-4.34-6.3-8.99-5.02c-0.49-0.65-0.97-1.3-1.46-1.95c-0.56-0.74-1.82-1.52-0.98-2.42
	c1.37-1.46,1.98,1,2.24,0.95c2.72-0.51,5.6,1.29,8.18-0.57c0.67,0.66,1.33,1.33,2,1.99c0.55,1.66,0.68,3.33,0.02,5
	C413.74,481.33,413.57,482.08,413.54,482.91z"/>
<path class="st22" d="M530.52,438.9c-0.65,0.66-1.31,1.33-1.96,1.99c-0.82-1.63-0.73-3.28-0.06-4.93c-0.87-1.58-1.1-3.29-0.95-5.07
	c2.83,1.48,2.39,5.49,4.62,6.84c2.68,1.63,1.92,3.2,1.37,5.18c-1.57,2.51,1.24,5.57-1,8c-0.33,0-0.66,0-0.98,0.01
	C530.15,447,531.96,442.81,530.52,438.9z"/>
<path class="st22" d="M478.55,475.9c-0.01,0.67-0.02,1.35-0.03,2.02c-0.66,0.33-1.31,0.66-1.97,0.99
	c-3.28-2.65-0.37-7.16-2.99-10.01c1.12-0.79,0.86-2.47,2.07-3.21c0.49-0.02,0.92,0.13,1.3,0.43
	C478.64,469.19,480.13,472.28,478.55,475.9z"/>
<path class="st22" d="M384.55,491.9c1.16-1.9,3.82-0.1,4.98-2c1.84,0.7,2.18,2.53,3.02,4c-5.35,0.06-10.71,0.15-15.98-1.03
	c-0.34-0.21-0.45-0.42-0.34-0.64c0.11-0.21,0.22-0.32,0.34-0.32C379.23,491.91,381.9,491.9,384.55,491.9c0.67,0.65,1.5,0.5,2.3,0.48
	C386.06,492.35,385.23,492.49,384.55,491.9z"/>
<path class="st10" d="M502.56,435.9c-0.85,1.46-1.65,2.74-3.8,2.38c-1.14-0.19-1.68,1.12-1.42,2.08c0.1,0.36,1.43,0.38,2.2,0.56
	c-0.35,0.34-0.7,0.67-1.05,1.01c-1.98-0.35-3.95-0.69-5.93-1.04c-0.12-0.16-0.24-0.32-0.36-0.47c0.11-0.17,0.21-0.34,0.32-0.5
	c2.9-2.29,7.44-2.58,8.59-7.08C501.6,433.88,502.08,434.89,502.56,435.9z"/>
<path class="st9" d="M527.52,417.91c0.34,0,0.67,0,1.01,0c-1.17,4.02-5.66,3.6-8.04,6c-0.82-0.01-1.55-0.19-1.96-0.99
	c-0.33-0.36-0.43-0.78-0.31-1.25C520.26,417.8,523.98,418.06,527.52,417.91z"/>
<path class="st18" d="M509.51,439.92c0.01-0.34,0.01-0.67,0.02-1.01c2.1,1.49,4.11,3.11,6.32,4.41c1.1,0.65,3.11,0.78,2.37,2.39
	c-0.91,1.98-2.93-1.56-4.33,0.28C513.28,443.36,509.35,443.11,509.51,439.92z"/>
<path class="st23" d="M511.54,487.9c1.76,1.32,2.5-1.33,4-1.03c1.18-0.7,0.95-1.88,1-2.97c1.05-0.43,1.62,0.1,2,1.01
	c-0.52,1.07-0.8,2.01,0.96,1.97c0.17,0.17,0.34,0.34,0.51,0.5c0.47,0.91,0.47,1.83,0.12,2.77c-0.37,0.65-0.87,1.06-1.67,0.91
	c-1.92-1.8-3.94-0.55-5.93-0.17c-1.01-0.01-2.02-0.03-3.03-0.04c0.01-0.33,0.02-0.65,0.02-0.98
	C510.2,489.22,510.87,488.56,511.54,487.9z"/>
<path class="st24" d="M537.53,448.94c0.06-1.53,0.72-2.73,2.18-3.8c-1.34,3.78,3.94,5.18,2.78,8.81
	C539.46,453.63,538.67,451.11,537.53,448.94z"/>
<path class="st14" d="M373.55,472.93c-0.05-0.57-0.79-1.55-0.07-1.62c1.68-0.17,2.33,1.37,3.08,2.58c0.61,1.28,0.89,2.75-0.68,3.24
	c-0.84,0.26-2.23-0.39-3.02-1.04C371.33,474.83,372.78,473.89,373.55,472.93z"/>
<path class="st24" d="M532.53,450.91c0.44-2.65-1.01-5.54,1-8c0.33,0.33,0.67,0.66,1,1c-0.07,0.59-0.68,0.66-1,1.01
	c0.1,2.3,1.71,3.87,3.5,6.94C534.97,450.11,534.01,454.28,532.53,450.91z"/>
<path class="st3" d="M399.56,498.88c2.47-2.59,6.99,1.01,9-2.99c1.01,0.85,2.1,2.03,1.41,3.19c-0.96,1.6-2.91,0.54-4.4,0.81
	c0,0-0.04,0-0.04,0C403.71,498.58,401.39,500.17,399.56,498.88z"/>
<path class="st6" d="M533.53,444.92c0.33-0.34,0.67-0.67,1-1.01c0.61-0.75,1.21-1.51,1.82-2.26c0.78-0.95,1.71-1.75,2.89-0.75
	c1.59,1.35-0.38,1.81-0.81,2.64c-0.6,1.16-1.29,2.27-1.95,3.4C535.49,446.28,535.09,444.74,533.53,444.92z"/>
<path class="st22" d="M527.55,430.89c-0.67,1.01-1.34,2.01-2.02,3.02c-0.7-0.49-0.33-1.51-1-2.01c0-0.33,0-0.67,0-1
	c0.73-1.81,0.24-5.24,4-2.99C527.34,428.61,527.59,429.8,527.55,430.89z"/>
<path class="st25" d="M483.56,448.91c4.33,1.67-1.36,3.32-0.01,4.99c-0.68,0.01-1.36,0.01-2.03,0.02c0,0,0.02,0.01,0.02,0.01
	c-1.4-1.86-0.72-3.47,0.59-5.02C482.6,448.55,483.08,448.55,483.56,448.91z"/>
<path class="st7" d="M529.54,419.91c0.33,0,0.65,0.01,0.98,0.01c0.77,1.66,0.75,3.31,0.01,4.97c0,0-0.01,0.04-0.01,0.04
	C528.4,423.61,527.69,422.01,529.54,419.91z"/>
<path class="st26" d="M431.9,477.6c-0.27,0.69-0.77,1.09-1.5,0.97c-0.89-0.14-1.51-0.7-1.45-1.65c0.05-0.84,0.76-0.99,1.45-0.87
	C431.25,476.2,431.94,476.57,431.9,477.6z"/>
<path class="st9" d="M532.81,462.41c0.45-3.36,0.74-5.44,1.2-8.9C534.63,457.11,534.99,459.28,532.81,462.41z"/>
<path class="st7" d="M424.09,451.88c1.89,1.5,1.47,2.77,1.15,4.25C423.86,455.06,423.44,453.94,424.09,451.88z"/>
<path class="st12" d="M522.78,453.08c0.12-0.85,0.38-1.51,1.19-1.41c0.23,0.03,0.51,0.78,0.51,1.2c0,0.55,0.2,1.54-0.92,1.2
	C523.2,453.96,522.99,453.37,522.78,453.08z"/>
<path class="st7" d="M537.15,456.09c0.12,0.67-0.01,1.26-0.51,1.02c-0.46-0.22-0.77-0.89-0.97-1.42c-0.08-0.21,0.33-0.6,0.52-0.91
	C536.55,455.27,536.91,455.76,537.15,456.09z"/>
<path class="st16" d="M448.54,374.93c-1.62,2.98,1.54,4.07,2.5,5.99c1.14,2.28,3.01,4.25,1.49,7.04c-3.75-4.43-6.47-9.42-7.99-15.04
	C445.95,371.42,446.02,371.46,448.54,374.93z"/>
<path class="st7" d="M426.51,378.89c1.01,1.01,2.03,2.02,3.04,3.04c-0.98,1.67-2.87-0.23-3.96,1c-0.34-1-0.69-2-1.04-3
	C424.96,379.13,425.7,378.95,426.51,378.89z"/>
<path class="st19" d="M479.55,389.94c2.97-2.1,1.19-5.36,1.94-8.02c0.63-2.25-0.84-4.86,1.03-6.97c1.27,1.07,1.27,2.59,1.44,4.05
	c0.12,2.58-0.1,5.16-0.03,7.74c-0.04,2.52,0.01,5.04-0.08,7.55c-0.04,0.83-0.16,1.65-0.36,2.45c-0.58,1.5-0.61,3.26-2.03,4.37
	c-2.52-0.57-2.12-2.96-2.92-4.62C478.26,394.21,477.68,391.88,479.55,389.94z"/>
<path class="st1" d="M471.54,363.93c4.07,1.37,2.08,5.97,4.36,8.28c1.74,0.01,1.46-2.13,3.17-2.64c0.81,1.33,2.4,2.48,0.48,4.34
	c-0.35,0.03-0.69,0.1-1.02,0.23c-0.52,0.19-1.02,0.42-1.52,0.67c-0.75,0.36-1.52,0.65-2.38,0.46c-0.4-0.2-0.73-0.49-1.01-0.84
	C473.1,370.89,470.09,367.85,471.54,363.93L471.54,363.93z"/>
<path class="st3" d="M483.53,373.93c1.14-3.24,4.22-0.67,6-2c0.28,0.21,0.38,0.42,0.29,0.64c-0.09,0.22-0.18,0.33-0.27,0.33
	c-0.01,0.67-0.01,1.35-0.02,2.02l0,0c-2.01,0.69-4.05,0.46-6.09,0.2C483.13,374.71,483.15,374.31,483.53,373.93z"/>
<path class="st0" d="M518.51,421.95c0.01,0.32,0.01,0.65,0.02,0.97c-5.5,0.16-10.93,0.85-16.31,2.07
	c-5.86,1.33-11.39,9.66-9.7,14.92c0,0,0.02-0.02,0.02-0.02c-1,0.76-2,0.76-2.99-0.03c0-0.32,0-0.63-0.02-0.95
	c-0.34-0.33-0.54-0.73-0.61-1.2c-0.07-1.16-0.3-2.29-0.72-3.37c-2.11-5.49-5.08-6.16-9.45-2.14c-0.65,0.33-1.31,0.37-1.98,0.08
	c-0.81-2.45-2.13-4.73-2.53-7.32c1.04-2.27,3.76-0.8,5.14-2.32c2.74-2.73,4.54-5.92,5.78-9.63c1.93-5.78,4.7-11.22,8.44-16.09
	c0.31,0,0.63,0,0.94,0c3.25,0.36,3.58-2.49,4.79-4.37c0.21-0.65,0.5-1.26,0.95-1.78c2.08-1.08,4.34-0.83,6.55-0.91
	c1.99-1.06,1.89-3.25,2.71-4.93c0-0.33,0-0.66,0.01-0.98c-0.27-1.36,0.66-1.01,1.44-1.09c3.67-0.4,7.56-0.07,10.55-2.93
	c0.34,0,0.68,0,1.01,0c2.88,0.09,4.57-2.8,7.54-2.85c1.97-0.03,3.5-0.02,4.49,1.85c-7.25,0.99-12.49,6.38-19.14,8.87
	c-3.54,1.33-5.58,5.93-5.59,10.44c-0.5,2.35,1.2,5.02-1.01,7.13c-1.28,0.17-2.52,0.2-3.38-1.03c-0.25-0.43-0.54-0.98-0.35-1.4
	c0.96-2.02,2.07-4.82-0.53-5.46c-2.21-0.55-3.5,2.41-4.22,4.65c-0.41,1.29-0.04,2.64-0.15,3.95c-0.07,0.45-0.22,0.88-0.43,1.29
	c-1.38,1.93-1.18,4.01-0.57,6.12c0.36,0.99,0.98,1.6,2.13,1.47c0.88-0.06,1.74-0.03,2.56,0.34c1.21,0.52,1.01,1.71,1.1,2.18
	c1.26-3.59-1.95-8.64,2.92-11.88c3.91,1.31,2.95,5.76,5.24,8.12C513.8,417.21,517.59,418.65,518.51,421.95z"/>
<path class="st25" d="M479.55,423.92c-1.32,2.11-3.55-0.41-5.01,0.99c-2.64,1.37-4.16-0.76-6-1.9c-0.23-0.41-0.26-0.83-0.12-1.28
	c0.92-1.22,2.14-2.11,3.33-3.03c1.66,2.36,1.04-0.54,1.61-0.7c1.25-0.52,0.6-1.65,0.81-2.51c-0.38,0.85,0.31,2.08-0.93,2.63
	c-1.38-0.27-1.12-1.37-1.17-2.32c-0.02-0.35,0.17-0.57,0.26-0.58c-0.81,0.89,0.08,2.27-0.41,3.35c-2.98,1.04-1.49-1.19-1.8-2.17
	c-0.34,1.65-0.74,3.44-2.88,3.89c-0.52-0.06-0.93-0.29-1.25-0.71c-1.15-3.08-1.06-5.99,1.2-8.59c3.8-2.05,0.72-4.87,0.81-7.34
	c0.86-1.98-1.26-5.83,3.39-5.46c0.37,0.31,0.63,0.69,0.82,1.12c0.23,1.32-0.27,2.59-0.27,3.73c-0.15,0.82,1.13,0.19,0.46,0.22
	c-0.16,0.01-0.18-0.09-0.2-0.29c-0.1-1.09-0.5-2.41,1.48-1.86c0.64,0.97,0.15,2.1,0.46,3.22c0.07,0.56,0.45,0.04,0.3-0.12
	c-0.96-0.99,0.21-2.82-1.33-3.7c-1-2.15-1.14-4.42-0.54-6.65c0.9-3.35,2.1-1.65,3.21-0.13c-0.31-1.27-0.08-2.55,1.2-2.69
	c1.38-0.15,0.93,1.29,1.04,2.13c0.12,0.92-0.23,1.92,0.51,2.72c0.27,0.42-0.48,1.86,1.03,1.02c1.61,0.86,0.38,3.12,1.97,3.99
	c0.34,0.14,0.64,0.08,0.88-0.21c0.25-0.92,0.1-1.81-0.15-2.7c-0.12-0.42-0.02-0.77,0.29-1.07c0-0.66,0-1.33,0-1.99
	c0.19-0.3,0.46-0.47,0.8-0.54c0.52-0.1,0.85-0.52,1.27-0.79c0.38-0.11,0.68-0.01,0.91,0.31c0.46,2.36,0.91,4.72,1.37,7.08
	c0.49-2.83,1.16-5.5,1.96-8.09c2.86,1.2-3.05,6.05,2.67,6c-1.33,4.8-4.04,8.94-6.42,13.23c-0.6,1.07-1.47,2.61-3.07,1.39
	c-1.03-0.78-0.61-0.6-1.24,0.41C478.75,417.19,478.62,420.43,479.55,423.92z"/>
<path class="st27" d="M521.53,379.92c-1.68,3.18-8.19,5.36-11.99,4.02c-4.11-0.58-8.68,0.69-12-3.02c2.88-3.03,5.43-6.27,10.62-4.19
	c2.15,0.86,5.03,0.67,7.36-0.78c0.34,0.32,0.68,0.64,1.02,0.96c0.93,1.54,1.95,2.98,4.02,3
	C520.87,379.92,521.2,379.92,521.53,379.92z"/>
<path class="st9" d="M495.54,392.92c1.92-1.36,0.2-3.85,1.92-5.67c1.62,1.61,1.06,4.43,3.06,5.65c-1.44,2.17-1.69,6.11-5.99,4.02
	C496.68,396.04,496.54,394.59,495.54,392.92z"/>
<path class="st9" d="M500.54,390.93c-0.33-0.68-0.66-1.35-0.99-2.03c1.94-1.1,3.53-2.88,5.97-2.99c1.03,1.54,2.71,2.95,1.01,5.03
	C504.54,390.48,502.54,391.84,500.54,390.93z"/>
<path class="st12" d="M503.54,360.93c0.66,1,1.32,1.99,1.97,2.99c-0.14,2.34,1.04,4.67,0.03,7.01c-1.03-2.54-4.37-3.14-5.01-6l0,0
	C502.24,364.13,500.6,360.8,503.54,360.93z"/>
<path class="st27" d="M506.54,390.94c-0.34-1.68-0.68-3.35-1.01-5.03c1.55,0.55,2.63-0.81,4.01-0.97
	C511.03,388.18,509.79,390.06,506.54,390.94z"/>
<path class="st1" d="M505.54,370.93c0.23-2.34-1.93-4.66-0.03-7.01c0-0.95,0-1.9,0-4.25c3.21,4.48-0.11,8.04,1.02,11.26
	C506.21,370.92,505.88,370.93,505.54,370.93z"/>
<path class="st17" d="M404.54,444.91c-3.54,2.84-7.27-1.71-10.9,0.47c2.71,1.4,5.67,1.6,8.74,2.3c-1.89,0.13-3.77,0.26-5.66,0.39
	c-0.01,0.28-0.01,0.56-0.02,0.84c1.61,0,3.22,0,4.83,0c-5.07,3.56-6.03,3.3-9.74-2.1c-0.8-1.16-2.14-1.95-3.23-2.91
	c-0.34-1-0.68-1.99-1.02-2.99c1.33-0.66,2.67-1.32,4-1.98c0.89-1.06,2.13-1.15,3.14-0.58c0.97,0.54,0.63,2.5,2.63,2.28
	c2.65-0.29,5.29,0.04,7.57,1.65c0.41,0.29,0.61,0.76,0.73,1.39c-2.65,2.16-5.22-0.98-7.83-0.23c-0.67,0.01-0.06,1.08-0.22,0.43
	c-0.05-0.22,0.08-0.27,0.38-0.33C400.34,443.1,402.32,444.57,404.54,444.91z"/>
<path class="st28" d="M553.53,410.92c0.19-4.54,5.3-3.42,5.97-3.04c6.1,3.51,5.16-1.62,5.91-4.51c0.28-1.08,0.09-2.29,0.11-3.44
	c0.24-1.69-0.65-3.6,0.97-5.02c-0.47,3.68,0.86,7.18,1.06,10.79c0.14,2.52,2.88,2.83,3.45,1.98c1.97-2.92,3.06,0.33,4.51,0.23
	c0.34,1,0.67,2.01,1.01,3.01C568.86,410.22,561.19,413.18,553.53,410.92z"/>
<path class="st3" d="M551.53,391.91c-1.51,0.2-2.84-0.35-4.13-1.02c-1.16-0.6-1.79-0.31-1.89,1.02c-2.32-1.51-4.03,2.17-6.35,0.75
	c-0.6-0.41-0.99-0.96-1.09-1.69c-0.29-2.41,1.03-4.93-0.67-7.26c-0.75-1.03-1.75-2.48-0.75-3.63c1.47-1.68,2.55,0.6,3.87,0.84
	c0.13,0.1,0.31,0.18,0.37,0.31c2,4.25,5,7.23,9.83,8.07c0.35,0.06,0.53,1.07,0.79,1.64C551.52,391.27,551.52,391.59,551.53,391.91z"
	/>
<path class="st25" d="M367.56,503.89c1.44-1.57,3.2-0.93,5.33-0.78c-1.8,1.41-3.5,1.82-5.35,1.76
	C367.55,504.54,367.56,504.21,367.56,503.89z"/>
<path class="st29" d="M607.53,391.93c-2.05-0.89-1.98,1.1-2.45,1.99c-1.05,2.03-2.35,3.51-4.81,3.62
	c-0.17-6.8,5.44-11.89,5.25-18.62c-0.46-3.79,2.76-3.9,5-4.99c2.55,1.14,4.41-2.46,7.01-1.03c0,0,0.01,0,0.01,0
	c0.43,0.94,1,1.97,2.14,1.74c3.07-0.61,2.74,1.48,2.82,3.31c-0.5,0.47-1.23,0.89-1.76,0.59c-4-2.22-7.16,0.81-10.63,1.67
	c-2.11,0.52-2.43,1.91-0.82,3.53c0.83,0.61,0.94,1.47,0.85,2.4c-0.39,1.6-0.3,3.29-0.89,4.86
	C608.87,391.67,608.41,392.2,607.53,391.93z"/>
<path class="st30" d="M592.49,371.9c-1.18,3.89-2.02,8.04-6.95,9.05c-1.26-0.6-1.07-2.15-1.98-2.98c1.54-2.43,0.82-6.45,4.96-7.04
	C589.99,370.67,591.34,370.88,592.49,371.9z"/>
<path class="st20" d="M520.54,367.92c-0.24,1.69,0.67,3.61-1.01,5.01C519.77,371.24,518.87,369.32,520.54,367.92z"/>
<path class="st1" d="M503.54,360.93c-1.7,0.81-0.2,4.03-3.01,4c-0.25-2.63,0.4-4.8,3-6C503.54,359.59,503.54,360.26,503.54,360.93z"
	/>
<path class="st31" d="M471.54,363.92c1,3.66,1.99,7.33,2.99,10.99c-2.94-0.27-6.24,0.1-7-4c0,0,0.01,0.02,0.01,0.02
	C466.07,367,467.36,364.64,471.54,363.92z"/>
<path class="st32" d="M601.54,467.91c-0.66-5.66-1.39-11.31-0.04-16.97c0.95,2.61,2.08,5.19,1.57,6.81
	c-1.84-10.62-4.47-22.15-8.99-33.23c0.25-2.29,1.17-3.97,3.77-4.1c1.46,0.46,1.09,1.77,1.27,2.82c0.46,2.66,1.32,0.43,2.02,0.16
	c0.7-0.46,1.95-1.12,2.2-0.54c1.77,4.17,7.09,6.54,6.17,12.06c-0.24,0.42-0.58,0.75-0.99,1c-1.87,0.86-1.87,0.86-1.91,0.38
	c-0.23-2.99-0.26-2.92-3.72-4.34c-0.56-0.23-0.66-1.45-1.15-2.09c-0.19-0.25-0.95-0.32-1.26-0.13c-0.34,0.21-0.74,1.07-0.64,1.16
	c2.57,2.52-0.08,6.59,2.69,9.02l-0.01-0.01c0.54,6.08,1.37,12.11,3.01,18.01l-0.01,0c0,1,0,2,0,3.01c-1.32,1-1.75,2.25-1.15,3.85
	C605.39,467.55,603.6,467.86,601.54,467.91z"/>
<path class="st8" d="M594.54,471.89c-0.83,0.03-1.58,0.2-2.02,1.01c-0.69,1.42-0.9,3.59-3.21,2.97c-1.72-0.46-2.48-1.92-2.18-3.44
	c-2.47,2.05-3.34,5.38-4.89,8.33c-1.72,3.29-3.34,2.83-4.43-0.55c1.91-7.39,4.46-14.61,5.85-22.14c0.97-1.78,2.06-3.23,4.3-1.61
	c1.03,0.9,1.66,2.11,1.78,3.41C590.15,464.37,592.92,467.89,594.54,471.89z"/>
<path class="st5" d="M608.51,435.91c0-0.33,0-0.66,0-0.99c3.86-2.36,3.5-5.98-0.08-9.23c-2.32-2.11-2.93-5.66-4.42-8.51
	c2.62-2.73,5-0.14,7.39,0.48c0.78,0.2,1.62,0.92,2.47,1.36c2.51,3.53,2.86,7.52,2.56,11.66c-0.6,1.71-0.59,3.49-0.6,5.27
	c-0.04,2.64-0.78,5.15-1.38,7.69c-0.23,0.48-0.55,0.9-0.94,1.27c0,1.42-0.66,2.42-1.96,2.99
	C610.54,443.91,609.53,439.91,608.51,435.91z"/>
<path class="st33" d="M578.53,480.9c0.98,0.92,2.02,1.99,2.61-0.27c1.13-4.39,3.94-7.7,7.04-11.01c0.71,1.76-1.65,4.12,0.96,5.32
	c1.98,0.91,1.81-2.05,3.37-2.03c2.13,5.11-2.96,6.2-5,9c-0.09-1.7-1.43-2.38-3.19-3.7c-0.06,6.76-1.88,11.68-9.8,9.71
	c-0.29-0.4-0.4-0.84-0.35-1.33C575.29,484.43,575.22,481.37,578.53,480.9z"/>
<path class="st20" d="M556.53,481.89c-0.21,5.67,0.45,11.14,3.42,16.15c1.07,1.81,0.39,3.88,0.58,5.83c-2.33-1.34,0.25-5.15-3.04-6
	c-0.19-0.84,0.54-2.07-1.06-2.3c-6.3-0.89-10.36-5.73-15.42-8.82c-0.25-0.15-0.33-0.56-0.49-0.85c0.82-3.94,2.91,0.27,4.2-0.65
	c0.23,3.86,0.91,0.36,1.27,0.05c0.53-0.46,1.04-0.73,1.73-0.46c0.26,0.61,0.38,1.23,0.22,1.89c0.31-0.24,0.08-0.57,0.09-0.84
	c0.05-1-0.03-2.12,1.3-2.27c1.52-0.16,1.85,1.06,2.18,2.19c0.45,1.53-0.17,3.34,1.33,4.85c1.45-2.11-0.4-4.24,0.25-6.21
	c0.14-0.18,0.29-0.36,0.44-0.55C555.97,485.38,555.26,482.16,556.53,481.89z"/>
<path class="st9" d="M563.54,493.92c0.38-2.3,1.32-4.33,2.94-6.02c0.57-0.62,0.98-1.48,2.06-1.29c0.86,0.4,1.29,1.11,1.44,2.02
	c0.32,1.5,1.93,2.54,1.56,4.29C569.01,494.37,566.48,495.79,563.54,493.92z"/>
<path class="st33" d="M587.5,481.7c0.51,5.17,2.72,0.38,4.26,0.57c0.31,3.4-1.43,4.77-4.09,5.06c-0.71,0.08-1.6,1.94-2.28,0.13
	C584.48,485.05,586.31,483.57,587.5,481.7z"/>
<path class="st34" d="M621.48,445.92c0.83,2.61-1.18,5.59,1.04,8.02c0.36,0.3,0.98,0.33,1,0.98c-0.46,0.79-1.2,0.96-2.04,0.94
	C619.02,452.54,619.22,449.23,621.48,445.92z"/>
<path class="st35" d="M600.56,498.92c0.55,1.82,3.66-0.13,3.43,1.89c-0.24,2.12-2.34,2.95-4.47,3.08
	C601.35,502.55,598.7,500.27,600.56,498.92z"/>
<path class="st36" d="M616.54,439.92c-0.13,2.18-0.57,4.26-2,6c-0.34-0.33-0.68-0.67-1.02-1.01c-0.01-0.33-0.01-0.65-0.01-0.98
	c0.86-2.04,0.9-4.36,2.18-6.26C617.16,437.98,617.21,438.81,616.54,439.92z"/>
<path class="st37" d="M572.32,494.76c-0.79,2.92-3.24,1.53-5.12,1.94C568.9,496.05,570.61,495.41,572.32,494.76z"/>
<path class="st35" d="M601.49,496.91c1.34-0.34,2.68-0.68,4.02-1.02c0.33,0.34,0.66,0.69,0.99,1.03c-1.39,1.34-3.23,1.55-4.98,1.98
	C601.52,498.24,601.51,497.58,601.49,496.91z"/>
<path class="st25" d="M577.55,501.88c-1.35,0-2.69,0-4.04,0c2.1-1.69,4.7-1.92,7.26-2.77C580.57,501.41,578.1,500.41,577.55,501.88z
	"/>
<path class="st35" d="M607.53,492.89c1.61,2.09,0.77,5.2,2.96,7.05c-0.34,0.32-0.67,0.64-1.01,0.96c-1.25-1.03-1.81-2.4-1.96-3.97
	C607.52,495.59,607.53,494.24,607.53,492.89z"/>
<path class="st34" d="M620.49,444.9c0.34-1.32,0.68-2.65,1.03-3.97c3.12,1.37,0.34,2.66-0.05,3.99
	C621.14,444.91,620.82,444.91,620.49,444.9z"/>
<path class="st24" d="M588.09,500.2c-1.93,1.04-3.26,0.66-5.16,0.39C584.86,499.56,586.2,499.93,588.09,500.2z"/>
<path class="st0" d="M501.53,509.91c0.64-3.8,1.83-6.67,2.92-7c3.22-0.99,9.96-0.27,12.36,1.42c-1.94,1.45-4.67-0.51-6.29,1.55
	C506.64,505.26,504.26,507.98,501.53,509.91z"/>
<path class="st25" d="M530.53,488.9c0,6-0.01,12-0.01,18c0,0-0.49,0-0.49,0s-0.49,0-0.49,0c0-6,0-12,0-18
	C529.87,488.9,530.2,488.9,530.53,488.9z"/>
<path class="st35" d="M626.55,498.87c-1.21,0.01-2.72-0.31-3.03-1.25c-0.32-0.98,1.03-1.6,2-2.22c3.2-2.06-1.81-1.97-1.01-3.49
	c-1.89-4.1-6.83-5.15-8.98-8.99c-0.32-1.43-2.26-1.88-2.23-4.17c4.65,3.41,9.07,6.47,13.27,9.79c1.98,1.57,3.24,1.16,3.35-1.05
	c0.2-4.21,1.87,0.05,2.61-0.58c0.8,0.44,0.96,1.19,0.98,2.01c-0.01,1.43-0.68,2.42-1.99,2.98c-2.2,0.95-2.13,3.26-3.01,5
	C627.57,497.27,626.91,497.92,626.55,498.87z"/>
<path class="st8" d="M628.51,496.9c0.02-2.26-0.33-4.74,3.01-5c-1,2-2,4.01-3.01,6.01C628.51,497.57,628.51,497.23,628.51,496.9z"/>
<path class="st4" d="M575.56,510.86c0.42-0.8,1.18-0.94,1.98-0.98c8.25,0,16.49,0,24.74,0c0,0.33,0.01,0.66,0.01,0.98
	C593.37,510.86,584.47,510.86,575.56,510.86z"/>
<path class="st19" d="M580.52,514.88c0-0.32,0.01-0.64,0.01-0.96c4.34,0,8.69,0,14.13,0c-2.02,0.97-3.09,1.48-4.15,1.99
	C587.19,515.47,583.68,516.85,580.52,514.88z"/>
<path class="st5" d="M578.52,508.9c4.33-1.64,8.67-1.64,13,0C587.19,508.9,582.85,508.9,578.52,508.9z"/>
<path class="st4" d="M622.51,379.91c-5.62-1.88-11.82-0.1-13.98,4c-2.46-3.39-2.4-3.25,0.93-4.66c4.25-1.81,8.39-3.79,13.04-1.31
	c0.01,0.32,0.02,0.65,0.03,0.97C622.51,379.25,622.51,379.58,622.51,379.91z"/>
<path class="st33" d="M634.5,384.92c0.01-1.66,0.01-3.32,0.02-4.98c1.87,2.14,0.69,4.61,0.91,7.05c-0.37-0.28-0.73-0.41-0.79-0.62
	C634.51,385.91,634.54,385.4,634.5,384.92z"/>
<path class="st38" d="M637.49,380.95c0.01,1.66,0.01,3.31,0.02,4.97c-0.03,0.16,0,0.37-0.09,0.48c-0.17,0.2-0.41,0.33-0.62,0.49
	C636.5,384.85,635.83,382.76,637.49,380.95z"/>
<path class="st17" d="M536.54,481.9c-0.82,0.03-1.58,0.2-2.03,0.99c-0.66,0.01-1.33,0.02-1.99,0.03c0.74-1.83,2.25-2.13,3.98-1.99
	c0.27,0.21,0.36,0.42,0.29,0.64C536.71,481.79,536.63,481.9,536.54,481.9z"/>
<path class="st0" d="M612.52,418.9c-2.67-0.67-5.34-1.34-8-2.01c-0.52,1.31-1.91,1.38-2.88,2.06c-1,0.72-1.78,1.79-3.13,1.95
	c-2.23-0.2-2.64,2.02-3.98,3c-1.36,1.15-3.01,1.13-4.68,1.35c-3.81,0.49-7.43,1.52-10.27,6.16c3.24-2.14,5.43-3.84,8.02-4.77
	c3.46-1.23,5.63-0.06,5.93,3.62c0.31,3.77,0.79,7.62-0.49,11.35c-0.49,0.7-1.12,0.63-1.8,0.34c-0.96-0.56-2-0.92-3.05-1.26
	c-2.33-0.98-3.31-3.7-5.81-4.45c-0.97-0.4-1.94-0.85-3.03-0.41c-1.31,0.66-2.42-0.23-3.61-0.44c-1.03-0.03-1.83,0.79-2.85,0.82
	c-3.71,1.13-7.32-1.13-11.01-0.31c-2.41,0.63-4.74,1.44-6.53,3.3c-0.79,0.74-1.61,1.43-2.45,2.12c-0.66,0.54-1.17,1.21-1.6,1.95
	c-2.77,2.22-3.54,5.49-4.51,8.65c-0.41,0.31-0.82,0.3-1.22-0.03c-2.21-2.96-2.34-6.39-2.01-9.84c0.34-3.62-0.72-6.41-4.04-8.16
	c0.92-1.31,2.33-1.02,3.59-0.97c1.66,0.06,2.06-0.57,1.4-2.03c-0.84-1.72-0.24-2.48,1.6-2.42c1.45,0.74,1.32,2.12,1.38,3.42
	c0.44,0.84,1.22,0.96,2.05,0.96c4.57-2.19,9.75-2.83,13.98-6.02c2.51-1.89,3.85-5,6.9-6.23c2.64,0.16,1.2,2.4,1.83,3.59
	c1.44-2.98,1.87-0.29,2.3,0.51c0.67,1.25,0.91,2.7,1.37,5.29c0.24-3.89,2.27-4.67,4.59-5.11c4.98-5.35,9.23-11.38,14.99-15.99
	c0.38-0.38,0.79-0.4,1.22-0.11c1.62,2.38-0.65,4.73-0.13,8.1c3.07-4.69,9.78-6.04,7.64-13c0.54-0.53,1.2-0.67,1.93-0.58
	c1.54,0.47,2.75,1.48,3.97,2.48c0.31,0.31,0.54,0.68,0.72,1.07c0.1,0.98,0.81,1.41,1.62,1.74c4.13,1.45,7.35,5.32,12.29,4.6
	c2.47,0.72,5.02,0.89,7.55,1.24c0.86,0.12,1.58,0.34,1.2,1.46c-3.29,3.55-1.54,7.97-2.05,11.99c-0.64,0-1.27,0-1.91,0
	c-0.46-0.77-1.2-0.99-2.03-1c-2.92-2.34-4.33-6.13-7.71-8.02c-0.51-0.34-0.98-0.73-1.45-1.12c-0.6-0.47-1.23-0.89-1.92-1.23
	c-0.88-0.46-1.93-0.09-2.81-0.59c-0.57-0.28-1.44-1-1.57-0.88c-0.66,0.61,0.31,1.02,0.44,1.59
	C612.69,417.43,612.98,418.15,612.52,418.9z"/>
<path class="st12" d="M633.51,415.92c-2.58-2.61-6.55,1.14-9.02-1.97c0.1-1.56,3.68-2.11,1.12-4.68c-0.62-0.62,1.05-2.46,2.86-1.35
	c1.22,1.19,2.81,2.17,2.58,4.23c-0.24,2.11,1.25,1.76,2.49,1.77c2.27,0.4,3.94,1.39,3.97,4.01
	C636.12,417.37,635.26,415.76,633.51,415.92z"/>
<path class="st19" d="M389.53,514.88c1.02-0.33,2.05-0.65,3.07-0.98c0.63,0.47,1.27,0.94,2.66,1.98c-2.69,0-4.7,0.01-6.71-0.01
	c-0.31,0-0.9-0.14-0.9-0.16C387.82,514.43,388.87,515.1,389.53,514.88z"/>
<path class="st39" d="M374.55,514.89c1.75-1.81,4-0.68,6-1.01c0.41,0.26,1.83-0.49,1,1.01c-1.66,1.33-3.33,0.95-4.99,0.01
	C375.89,514.9,375.22,514.89,374.55,514.89z"/>
<path class="st25" d="M380.56,512.89c-1.95,0-3.89,0-5.84,0c-0.01-0.33-0.02-0.67-0.02-1c1.96,0,3.91,0,5.87,0
	C380.56,512.22,380.56,512.55,380.56,512.89z"/>
<path class="st40" d="M381.55,515.87c0.39,0.2,1.66,0.48,0.64,0.82c-1.41,0.47-3.3,0.77-4.61-0.78
	C378.89,515.15,380.22,515.18,381.55,515.87z"/>
<path class="st38" d="M374.54,515.88c-1.29,0-2.58,0-3.87,0c-0.02-0.26-0.03-0.52-0.05-0.78c1.31-0.07,2.63-0.14,3.94-0.2
	C374.56,515.22,374.55,515.55,374.54,515.88z"/>
<path class="st1" d="M623.53,454.92c-0.33-0.33-0.67-0.65-1-0.98c4.08-5.17,10.01-6.65,15.99-8.05c-2.96,2.78-5.62,5.73-6.01,10.04
	C629.67,454.21,626.53,455.13,623.53,454.92z"/>
<path class="st3" d="M545.58,451.9c0.32,0,0.63,0,0.95,0c0.32-0.32,0.7-0.42,1.14-0.29c0.81,0.29,1.17,1.52,2.33,1.12
	c0.33-0.17,0.66-0.28,1-0.38c0.5-0.17,0.99-0.36,1.23-0.89c0.34-0.88,0.4-1.87,1.03-2.63c0.33-0.22,0.7-0.35,1.08-0.4
	c1.54-1.28,0.56-3.11,1-4.63c0.31-1.08,0.22-2.7,1.57-2.77c1.93-0.1,0.4,2.11,1.2,2.65c0.96-2.11-2.94-5.29,1.62-6.78
	c0.47,2.06,0.24,4.1,0.19,6.04c0.41-1.54-0.23-3.35,0.34-5c0.45-0.34,0.92-0.38,1.42-0.12c0.99,2.17,0.2,4.28,0.01,6.36
	c1.08-1.12-0.54-3.19,1.41-4.42c3.82,4,6,8.77,6.78,14.25c0.34,1.45,1.23,3.13,0.63,4.34c-1.22,2.49,1.51,2.59,1.94,4
	c1.2,5.05-0.79,9.76-1.49,14.6c-0.11,1.2,0.15,2.36,0.51,3.49c1.35,3.23,0.2,5.3-2.98,6.43c-0.68,0.34-1.35,0.67-2.03,1.01
	c0.53-2.02,0.97-4.07,1.6-6.06c0.65-2.07,0.69-3.84-1.55-4.95c-0.82-0.74-2.55-0.47-2.48-2.22c4.67-2.88,2.77-7.72,3.5-11.78
	c0.13-4.58-1.45-8.78-2.9-13.01c-0.39-1.15-0.41-2.99-2.38-2.07c-1.62,0.76-1.33,1.99-0.3,3.24c0.36,0.44,0.35,1.18,0.93,3.41
	c-4.04-5.16-5.67-4.04-7.11,0.3c-0.78,2.35-3.95,3.5-4.62,6.49C548.49,458.45,546.73,455.37,545.58,451.9z"/>
<path class="st20" d="M562.52,474.89c0.66,0,1.32,0,1.99,0c0.67,0.67,1.34,1.34,2.02,2c-1.57,0.2-3.67-0.67-3.99,2
	c0.08,0.14,0.22,0.27,0.24,0.42c0.21,1.23,0.87,3.07-0.53,3.39c-1.97,0.44-0.6-2.13-1.69-2.82c-0.12-1.15-0.51-1.91-1.63-0.8
	c-0.87,0.86-1.6,1.87-2.39,2.82c-0.59-2.7,2.57-4.32,2.01-7c1.13-1.51,0.54-3.85,2.41-5.09C563.28,471,560.87,473.59,562.52,474.89z
	"/>
<path class="st41" d="M562.52,474.89c-4.45-0.01,1.75-3.31-1.7-3.51c-0.57,0.87-1.43,2.2-2.3,3.52c-0.56-3.61,1.57-5.88,4-8
	C565.81,469.57,561.02,472.23,562.52,474.89z"/>
<path class="st4" d="M547.53,478.91c2.48,1.38,3.44-1.06,4.99-2c0.34,2.33,0.67,4.66,1.01,6.99c0,0-0.01,0-0.01,0
	c-3.07-0.02-4.82-1.92-6.22-4.34C547.38,479.34,547.45,479.12,547.53,478.91z"/>
<path class="st1" d="M397.55,510.89c-2.69-1.95-5.61-3.2-9.01-2.99c-1.66,0.73-3.32,0.76-4.98-0.02c0-0.32,0-0.64,0.01-0.96
	c3.66-0.01,7.31-0.03,10.97-0.04c1.38,0.28,2.74-1.65,4.03-0.23c1.31,1.44-0.91,2.09-1,3.27
	C397.57,510.24,397.56,510.57,397.55,510.89z"/>
<path class="st42" d="M376.57,491.92c-0.01,0.32-0.01,0.64,0,0.96c-3.6,0-7.2,0-10.81,0c0-0.32-0.01-0.64-0.01-0.96
	C369.36,491.92,372.97,491.92,376.57,491.92z"/>
<path class="st4" d="M440.55,475.9c0.24-1.08-0.72-3.25-0.14-3.03c1.75,0.64,3.58-1.17,5.12,0.49c1.09,1.18,2.13,2.57,4.01,2.56
	c1.58,1.28,0.45,3.76,2.21,5.07c0.21,0.16-0.33,1.86-0.93,2.42c-0.76,0.71-1.54-0.21-2.01-0.8c-1.29-1.61-4-1.8-3.78-5.07
	C445.17,475.6,441.49,478.24,440.55,475.9z"/>
<path class="st17" d="M447.54,470.9c-0.34-0.67-0.68-1.33-1.02-2c4.97-2.02,4.75,3.22,7,5.01
	C449.94,476.08,449.79,471.4,447.54,470.9z"/>
<path class="st17" d="M453.56,473.89c1.77-2.62,4.73-1.06,6.98-1.98v0c2.81,4.19-1.6,2.96-3,4c0,0,0,0,0,0
	C456.15,475.35,455.29,473.76,453.56,473.89z"/>
<path class="st34" d="M455.54,477.9c0.48,0.8,0.95,1.6,1.55,2.61C454.52,479.3,454.52,479.3,455.54,477.9
	C455.54,477.9,455.54,477.9,455.54,477.9z"/>
<path class="st0" d="M553.54,410.91c-0.56,1.32-1.57,1.97-2.99,2.02c-0.35,0.47-0.69,0.47-1.03-0.01
	c-3.43-2.83-7.36-0.32-10.97-1.02c-5.07-0.98-6.3,3.6-9.02,6.03c1.49-3.29,1.02-7.35,3.99-10.06c0.88-1.37-1.13-2.28-0.58-3.61
	c0.5-1.26,0.75-2.79,2.69-2.51c2.33,1.6-0.8,5.67,2.98,6.59c1.71-1.03,2.44-3.87,5.25-2.84c0.22-0.91-0.22-2.08,1.34-2.7
	c1.77,1.93,1.71,5.75,5.32,6.13c0.18,0.4,0.36,0.8,0.54,1.2C553.02,406.72,552.4,411.65,553.54,410.91z"/>
<path class="st21" d="M546.52,428.92c-1.3,0.02-1.96,0.69-2,1.99c-0.33-0.34-0.66-0.67-1-1.01c0.46-3.98,0.92-7.96,1.43-12.29
	c1.6,3.54-0.76,7.26,1.58,10.29c0.25,0.23,0.33,0.45,0.25,0.68C546.69,428.81,546.6,428.92,546.52,428.92z"/>
<path class="st20" d="M546.52,428.92c0-0.34,0-0.68,0-1.02c0-2.6,0-5.19,0-7.79c0.13,3.96,2.46,7.78,0.97,11.8
	C546.34,431.18,546.56,430.01,546.52,428.92z"/>
<path class="st38" d="M549.52,412.92c0.34,0,0.68,0.01,1.03,0.01c-0.01,1.99-0.01,3.99-0.02,5.98c-0.06,0.63-0.13,1.26-0.19,1.89
	c-0.27,0.01-0.55,0.02-0.82,0.03C549.52,418.2,549.52,415.56,549.52,412.92z"/>
<path class="st28" d="M551.53,418.91c0.16-0.77,0.31-1.55,0.54-2.3c0.01-0.04,1.03,0.04,1.12,0.26c0.49,1.13,0.45,2.23-0.68,3.04
	C552.19,419.57,551.86,419.24,551.53,418.91z"/>
<path class="st0" d="M474.55,450.9c-0.02-0.33-0.02-0.66-0.01-1l0,0.01c1.58-2.55,4.37-1.88,6.68-2.51c0.72,0.25,1.17,0.75,1.32,1.5
	c-0.34,1.67-0.67,3.35-1.01,5.02C478.88,453.67,477.31,450.91,474.55,450.9z"/>
<path class="st5" d="M477.56,463.89c-0.41,0.93-2.52,0.16-2.02,2.01c0,0-0.01,0-0.01,0c-2.34,0.11-1.82-1.68-1.99-3
	c1-1.33,2-2.66,3-3.99C476.88,460.57,477.22,462.23,477.56,463.89z"/>
<path class="st8" d="M479.55,473.89c0.7-1.66-1.81-3.32-0.01-4.98c0.84,1.94,2.25,3.68,2.02,5.99
	C480.19,475.94,480.45,473.75,479.55,473.89z"/>
<path class="st28" d="M514.54,493.88c0.08-0.63-0.08-1.54,0.27-1.83c0.91-0.73,1.02,0.47,1.12,0.85c0.74,2.61,1.74,5.19,1.61,7.98
	C513.75,499.76,516.96,495.61,514.54,493.88z"/>
<path class="st19" d="M492.52,442.94c1.63,3.12,2.26,6.45,2.02,9.95c0,1.3,0,2.61,0,4.74c-0.93-1.73-1.46-2.73-2-3.73
	c0.54-3.42-1.11-6.62-1.03-9.99C491.16,442.86,491.62,442.67,492.52,442.94z"/>
<path class="st1" d="M482.54,448.91c-0.33-0.33-0.67-0.66-1-1c-1.22-2.95-1.09-5.76,0.92-8.36c0.3-0.36,0.66-0.65,1.08-0.87
	c0.79,0.05,1.36,0.28,1.03,1.25c-1.03,2.91-1.18,5.93-1.02,8.98C483.22,448.91,482.88,448.91,482.54,448.91z"/>
<path class="st7" d="M484.57,439.93c-0.34-0.33-0.68-0.66-1.02-1c-0.62-1.38-0.03-2.4,0.99-3.29c2.13-0.23,4.02,0.06,5.01,2.3
	c-0.01,0.32-0.02,0.65-0.03,0.97C488.31,441.39,485.91,438.05,484.57,439.93z"/>
<path class="st0" d="M496.54,468.91c0.17-3.43,1.42-6.26,5-8.35C501.52,464.64,499.45,467,496.54,468.91L496.54,468.91z"/>
<path class="st5" d="M376.56,467.9c1.33,0.34,2.66,0.69,3.99,1.03c-0.16,1.63-1.01,2.21-2.57,1.64
	C376.72,470.11,375.62,469.54,376.56,467.9z"/>
<path class="st1" d="M450.59,427.91c0.38,2.64-3.23,4.12-2.04,6.99c0.52,1.79-0.95,2.26-2.01,3.01c-2.08,3.84-1.41,7.98-1.3,12.11
	c-1.27-0.72-2.49-1.42-3.71-2.11c-0.33-0.66-0.67-1.33-1-1.99c1.62-3.22,1.75-6.27-0.99-9.01c1.58,0.22,3.27,1.02,4.37-1
	c0.93-1.71-0.2-2.97-1.08-4.02c-2.73-3.27-5.65-6.38-8.66-9.72c-2.63,3.77-1.04,7.29-0.64,10.75c-2.98,1.21-3.15-0.84-2.81-2.73
	c0.31-1.76,1.03-3.45,0.81-5.3c2.07-4.66,0.37-9.32,0.01-13.98c0.67,0.34,1.34,0.68,2.01,1.01c1.1,4.37,4.53,6.92,7.61,9.74
	C443.09,425.58,446.55,427.18,450.59,427.91z"/>
<path class="st12" d="M453.55,444.9c3.98-1.55,4.99,2.1,6.99,4c-0.15,2.23-2.19,3.34-3.59,3.61c-2.81,0.55-3.72,2.83-5.41,4.4
	c-0.09-2.78,1.58-5.91-2.62-7.81c2.64-0.91,3.41,2.73,5.5,0.47C456.43,447.4,454.03,446.4,453.55,444.9z"/>
<path class="st16" d="M451.54,441.91c1.32,0.56,2,1.55,2.01,2.99C448.98,446.53,451.96,443.08,451.54,441.91z"/>
<path class="st16" d="M446.54,437.91c0.67-1,1.34-2,2.01-3.01c0.8,0.44,0.98,1.18,1,2.01C448.43,436.89,448.05,439.1,446.54,437.91z
	"/>
<path class="st16" d="M450.57,439.92c-0.01,0.33-0.01,0.66-0.01,0.99c-0.73,0.2-1.48,0.97-2.19,0.11c-0.21-0.25-0.2-0.98,0.01-1.23
	C449.09,438.95,449.84,439.72,450.57,439.92z"/>
<path class="st34" d="M470.56,460.89c0-1,0-1.99,0-2.99c0.32-0.4,0.63-0.39,0.94,0.01c0.49,1.74,0.67,3.61,2.04,4.99
	c0.66,1,1.33,2,1.99,3c0.02,1.45,0.05,2.9-1.98,2.99C472.72,466.17,472.27,463.3,470.56,460.89z"/>
<path class="st13" d="M536.53,473.91c-0.67-0.66-1.33-1.33-2-1.99c0.04-0.33,0.08-0.65,0.11-0.98c4.01,3.12,10.56,2.12,12.88,7.97
	c0,0,0-0.01,0-0.01C543.53,477.97,539.53,477.04,536.53,473.91z"/>
<path class="st2" d="M453.52,458.9c1.32,1,1.84,2.4,2.03,3.98c-0.1,0.55,0.05,1.44-0.81,1.29c-0.46-0.08-0.8-0.83-1.2-1.27
	c1.17-1.52-1.06-1.91-1.01-3.06C452.86,459.53,453.19,459.21,453.52,458.9z"/>
<path class="st5" d="M439.55,445.91c-3.6-1.47-5,2.93-8.02,2.99c1.19-1.85,1.06-3.93,0.99-5.99
	C434.86,443.93,437.92,443.25,439.55,445.91z"/>
<path class="st7" d="M474.54,448.92c1.06-3.05,5.11-5,3.33-9.09c1.86,2.13,3.79-0.98,5.67,0.07c-2.5,2.21-0.86,5.46-1.99,8.01
	c-2.33,0.67-4.67,1.34-7,2C474.54,449.58,474.54,449.25,474.54,448.92z"/>
<path class="st6" d="M475.54,438.91c-0.66,1.02-1.33,1.04-2,0.01c-0.03-0.82-0.18-1.58-1-2c1.69-1.4,3.3-2.87,4.03-5.04
	c0.65,0,1.3,0.01,1.95,0.01C480.46,435.48,476.46,436.54,475.54,438.91z"/>
<path class="st17" d="M407.55,480.9c-0.68-0.35-1.63-0.75-1.12-1.61c0.21-0.36,1.81-0.45,2.06-0.11
	C409.09,479.97,407.68,480.18,407.55,480.9L407.55,480.9z"/>
<path class="st43" d="M420.53,443.94c0.36,2.65-0.87,5.31,0.03,7.96c0,0.34-0.01,0.67-0.01,1.01c-0.7-0.17-1.67,2.26-1.85,0.28
	C418.43,450.07,417.56,446.53,420.53,443.94z"/>
<path class="st0" d="M423.55,440.91c0-2.66,0-5.32,0-7.98c1.99,2.81,0.54,6,1,8.98C424.22,441.58,423.89,441.24,423.55,440.91z"/>
<path class="st31" d="M476.55,498.9c-1.31,0.46-2.63,0.93-4.02,1.42c-0.86-1.8-0.07-3.25,1.28-3.69
	C475.23,496.17,475.88,497.8,476.55,498.9C476.54,498.91,476.55,498.9,476.55,498.9z"/>
<path class="st31" d="M445.55,402.92c-1.38-3.64-4.03-6.34-6.58-9.16c-0.89-0.99-3.44-1.68-1.43-3.86c3.48-0.51,0.18-4.07,2.79-5.34
	c1.73,2.16,3.59,4.47,5.44,6.79c1.32-0.89,1.64-2.12,1.77-3.44c1.82,1.11,3.01,2.62,2.52,4.86c-0.49,2.25,0.51,3.46,2.5,4.12
	c1.91-0.18,2.04,1.77,1.47,2.19c-3.02,2.2-1.24,5.24-1.72,7.86c-0.13,0.46-0.36,0.87-0.68,1.22c-1.26,0.64-2.3,0.18-3.26-0.64
	c-1.03-1.23-1.95-2.53-2.71-3.94C445.62,403.37,445.59,403.14,445.55,402.92z"/>
<path class="st1" d="M451.56,406.85c-0.91-1.85,0.34-4.13-1.27-5.93c-0.58-0.65-0.22-1.35,1.08-1.23c2.83,0.25,2.58-1.08,1.2-2.78
	c0.66-1.33,1.32-2.65,1.98-3.98c1.11-0.25,2.34-0.78,2.64,1.04c-3.02,9.07-0.36,17.11,4.78,24.88c2.31-1.66,0.27-5.59,3.29-7.1
	c1.78,2.65-0.18,5.67,1.27,8.15c0.34,0,0.68,0,1.02,0c0.88,0.4,1.53,0.91,0.99,2.01c0,0,0,0.01,0,0.01
	c-4.76-0.07-8.89,1.94-13.02,3.97l0.01,0c-1.74-1.26-2.71,0.45-3.98,1.03c-0.38,0.35-0.8,0.4-1.24,0.13
	c-0.47-0.47-1.15-1.28-0.89-1.62c1.84-2.42,2-6.35,5.97-6.92c0.36-0.07,0.72-0.06,1.06-0.02c-1.08-2.61-3.53-4.32-4.45-6.99
	c-0.06-0.42-0.02-0.84,0.1-1.24C453.57,408.89,451.92,407.97,451.56,406.85z"/>
<path class="st4" d="M456.56,392.93c-0.67,0.07-1.34,1.1-2.02,0c0-0.67,0-1.34,0-2.01c3.57-0.36,3.59-0.42,1.22-5.67
	c3.8,1.66,6.45,1.2,6.77-3.34c0.95-3.99,6.31-5.97,4.99-10.99c1.45,2.88,4.99,2.1,7,4c0.33,0,0.66,0,0.99,0
	c0.13,0.2,0.26,0.4,0.39,0.6c0.02,0.24,0.05,0.48,0.08,0.71c-0.24,1.64-0.13,3.36-1.23,4.78c-0.44,0.22-0.9,0.25-1.36,0.1
	c-4.24-1.92-5.62-1.27-7.11,3.1C464.68,388.89,460.99,391.35,456.56,392.93z"/>
<path class="st13" d="M446.95,387.82c-1.08-1.55-2.17-3.1-3.25-4.65C446.34,383.73,447.04,385.75,446.95,387.82z"/>
<path class="st25" d="M444.55,417.91c-1.24,0.7,0.69,2.47-1.02,3c-0.75,0.4-1.18-0.06-1.61-0.57c-0.65-1.55-2.02-2.72-2.37-4.43
	c0.33-1,0.66-2.01,0.99-3.01C442.6,414,443.2,416.26,444.55,417.91z"/>
<path class="st44" d="M478.55,372.93c-0.01,5.67-0.02,11.33-0.03,17c-2.33,1.01-2.82-0.69-3.12-2.29c-0.39-2.05-0.34-4.15,0.12-6.21
	c0.88-2.45,0.32-5.29,2.02-7.52C477.88,373.59,478.21,373.26,478.55,372.93z"/>
<path class="st3" d="M475.53,375.93c1.67,1.4,0.75,3.31,1.01,4.99c0.87,2.96-1.94,6.72,1.98,9.01c0,1.99,0,3.98,0,5.96
	c-1.46-0.94-0.66-2.67-1.32-4.2c-1.42,1.68,0.19,4.02-1.66,5.22c-0.25-3.38-1.69-6.47-2.33-9.75c-0.11-2.32,0.08-4.55,1.75-6.38
	c0.38-1.6-0.4-3.34,0.59-4.87L475.53,375.93z"/>
<path class="st34" d="M505.54,403.91c0.21,2.95-1.54,5.21-2.86,7.54c-1.11,1.96-0.74,3.23,0.88,4.45c-1,0.01-2,0.02-2.99,0.02
	c-1.78-0.89-1.76-2.64-2.01-4.25c0.04-1.64-0.3-3.36,0.97-4.75C501.78,406.39,502.8,403.43,505.54,403.91z"/>
<path class="st44" d="M493.73,416.18c-1.57,0.7-0.61,3.57-3.01,3.46c-1.65-0.07-2.34-1.42-2.47-2.69c-0.25-2.3,1.97-2.36,3.37-2.87
	C493.38,413.45,492.72,415.74,493.73,416.18z"/>
<path class="st3" d="M483.51,394.91c0-2.66,0.01-5.32,0.01-7.99c0.07-0.63,0.14-1.26,0.2-1.89c0.28-0.01,0.55-0.02,0.83-0.03
	c0,2.97,0,5.94,0,8.91C484.28,394.31,485.03,395.79,483.51,394.91z"/>
<path class="st5" d="M468.54,410.91c0.01-2.32,0.01-4.65,0.02-6.97C471.22,409.21,471.22,409.21,468.54,410.91z"/>
<path class="st3" d="M482.54,402.92c0.01-1.65,0.01-3.31,0.02-4.96C484.02,399.61,484.01,401.27,482.54,402.92z"/>
<path class="st45" d="M570.52,420.91c0.02-0.82,0.2-1.56,0.99-2c1.28-0.51,2.4,0.07,3.53,0.53c0.84,0.08,1.72-0.04,2.47,0.48
	c0.76,0.91,0.87,4.05,2.78,0.6c1.43-2.59,3.13-5.08,5.99-7.43c-0.97,4.96-6.36,6.91-5.77,11.82c-2.04,1.67-4.09,3.33-4.2,6.46
	c-2.47-2-1.44-5.29-3.69-6.93c-0.11,0.46-0.23,0.93-0.44,1.79C570.77,424.48,572.38,422.09,570.52,420.91z"/>
<path class="st10" d="M608.51,395.91c-1.26,2.64-0.6,4.65,1.99,6.01c-0.36,2.61-2.34,1.97-3.99,1.99c-0.65,0-1.31,0.01-1.96,0.01
	c-0.86,0.85-1.25,4.03-2.99,0.62c-0.01-0.21-0.03-0.42-0.04-0.63c2-3,3.99-6,5.99-9.01C608.05,395.04,608.38,395.38,608.51,395.91z"
	/>
<path class="st40" d="M608.51,395.91c-0.33-0.33-0.66-0.67-0.99-1c0-0.99,0.01-1.99,0.01-2.98c0.33-0.34,0.67-0.68,1-1.02
	c0.68-0.5,0.27-1.54,1-2.02c1.97,1.1,1.44,5.8,5.54,3.83c-0.18,0.73-0.36,1.46-0.53,2.19c0.18,1,1.1,2-0.02,3
	c-1.21-1.02-2.49-1.96-3.6-3.06C609.05,393,609.25,395.44,608.51,395.91z"/>
<path class="st19" d="M579.89,407.91c0.05-2.9,1.96-5.44,1.18-8.44C583.15,402.92,583.14,402.98,579.89,407.91z"/>
<path class="st5" d="M583.56,377.97c1.34,0.54,1.95,1.57,1.98,2.98c-0.18,1.01,0.33,2.68-1.37,2.52c-1.31-0.12-1.56-1.35-1.12-2.66
	C583.36,379.91,583.4,378.92,583.56,377.97z"/>
<path class="st10" d="M596.51,408.92c-0.33,0-0.67,0-1,0c1.56-2.2,3.99-3.35,6.01-4.99c0,0,0,0,0,0
	C601.44,408.63,599.91,410.15,596.51,408.92z"/>
<path class="st28" d="M577.51,417.9c-0.67-1.33-1.34-2.66-2.01-3.99c1.19-0.71,0.99-1.9,1.01-3.01
	C580.28,412.75,576.44,415.67,577.51,417.9z"/>
<path class="st28" d="M575.46,408c0.34-1.56-0.58-3.26,0.85-4.6C577.07,405.55,577.07,405.55,575.46,408z"/>
<path class="st46" d="M550.51,408.94c-4.77,1.6-5.18-1.57-5.7-4.98c-0.16,1.67-0.33,3.33-0.49,5.02c-1.7-0.46,0.19-2.56-1.47-2.98
	c0.29,1.81-2.47,0.69-2.45,2.84c0.02,2.84-1.2-0.15-1.86,0.09c-0.58-0.47-0.71-1.11-0.67-1.81c0.04-0.45,0.13-0.9,0.23-1.34
	c1.65-4.2-1.85-8.62,0.55-12.78c0.24-0.4,0.53-0.75,0.88-1.07c0.59,0.02,1.67,0.19,1.71,0.05c1.39-4.87,2.85-1.43,4.28-0.06
	c1.19,4.24-0.08,8.91,2.4,12.97c1.24,0,0.03-1.86,1.25-1.99C549.61,404.91,550.06,406.92,550.51,408.94z"/>
<path class="st25" d="M559.01,403.08c-0.72-1.04-0.62-2.06-0.04-3.43C559.72,400.96,559.77,401.97,559.01,403.08z"/>
<path class="st21" d="M539.53,391.92c0,0.34,0,0.68,0,1.02c-2.22,2.6-0.59,6.93-4.02,8.99c-0.66,0.99-1.31,1.99-1.97,2.98
	c-0.67-0.33-1.34-0.66-2-1c1.84-4.03,3.81-7.98,4.37-12.49c0.24-1.98,1.8-0.01,2.64-0.5C538.87,391.26,539.2,391.59,539.53,391.92z"
	/>
<path class="st3" d="M609.53,388.89c-0.04,0.82-0.19,1.58-1,2.02c0.22-1.67-0.69-3.55,0.96-4.94
	C609.5,386.94,609.52,387.92,609.53,388.89z"/>
<path class="st6" d="M615.53,482.91c2.58,1.76,5.2,3.46,7.73,5.29c1.21,0.88,2.37,1.96,1.25,3.71c-3.73-0.87-6.85-2.96-10-4.99
	c-0.96-0.62-2.46-1.26-2.21-2.34C612.59,483.25,614.2,483.02,615.53,482.91z"/>
<path class="st25" d="M624.34,501.87c-0.89-0.08-2.53-0.07-2.55-0.26c-0.15-1.24,0.94-0.55,1.49-0.66c0.4-0.08,0.86,0.17,1.29,0.27
	C624.49,501.43,624.41,501.65,624.34,501.87z"/>
<path class="st7" d="M620.5,430.91c0-0.95,0-1.9,0-3.91c1.44,2.57,0.81,4.29,1,5.91C620.7,432.48,620.53,431.73,620.5,430.91z"/>
<path class="st25" d="M602.52,439.92c-0.13-1.85,0.6-3.46,1.37-5.11c2.47,2.65,0.91,5.38,0.4,8.17c-1.35-0.66-0.38-2.56-1.78-3.07
	C602.51,439.91,602.52,439.92,602.52,439.92z"/>
<path class="st15" d="M605.51,457.91c0-2.26,0-4.51,0-6.77C606.22,453.42,607.34,455.73,605.51,457.91
	C605.51,457.91,605.51,457.91,605.51,457.91z"/>
<path class="st24" d="M560.54,479.89c0.52,0.7,1.05,1.4,1.83,2.46c0.06-1.41,0.11-2.43,0.15-3.45c1.68,2.59,1.31,5.27,0.23,7.93
	c-0.08,0.21-1.07,0.36-1.24,0.17C559.62,484.87,560.89,482.27,560.54,479.89z"/>
<path class="st11" d="M597.52,468.9c-0.67-1.33-1.33-2.66-2-3.99c1.68-0.24,3.57,0.15,3.1-2.88c-0.45-2.89-0.1-5.92,0.4-8.85
	C598.67,458.42,601.48,463.95,597.52,468.9z"/>
<path class="st11" d="M593.53,452.89c-0.01-3.66-0.03-7.32-0.04-10.98c2.62,0.15,4.13,1.69,5.02,4c-3.03-2.02-4.21-1.13-4.04,2.41
	C594.54,449.86,595.06,451.62,593.53,452.89z"/>
<path class="st14" d="M592.52,460.89c-0.67-0.99-1.34-1.99-2.01-2.98c-0.56-0.67-0.61-1.34,0-2c0,0-0.01-0.01-0.01-0.01
	C591.15,457.57,594.95,457.98,592.52,460.89z"/>
<path class="st30" d="M601.52,417.92c1-0.34,2-0.68,3-1.02c1.13,2.42,4.39,3.77,3.54,7.21c-0.15,0.62,0.61,1.57,1.09,0.97
	c3.34-4.23,1.53,0.89,2.25,1.3c1.76,1.01,0.46,3,1.03,4.56c1.32,3.58-0.3,4.91-3.9,3.99c0.92-1.51,0.29-2.83-0.63-4.02
	c-1.68-2.19-4.57-3.55-4.28-7.08c0.06-0.74-1.35-0.11-2.07,0.1c-2.07,0.22-1.57-1.22-1.32-2.24
	C600.52,420.4,601.14,419.19,601.52,417.92z"/>
<path class="st35" d="M584.55,457.92c0.13-1.55-1.39-1.98-2.05-2.99c0.36-0.79,1.05-1.3,1.59-1.94c0.78-1.05,1.65-2,2.71-2.76
	c1.19-2.75-0.01-5.67,0.64-8.45c0.16-0.72,0.53-1.33,1.06-1.83c1.1,0.01,2.29-0.24,3,0.98c-0.46,0.17-1.29,0.3-1.32,0.53
	c-0.55,4.83-1.99,9.69,0.33,14.46c0,0.67,0,1.34,0,2c-1.11,0-1.49-2.2-3-1C586.02,455.78,585.43,457.28,584.55,457.92z"/>
<path class="st34" d="M524.55,489.88c-0.06-1.09,0.15-2.27-1.01-2.98c1.01-2.03,2.01-2.01,2.99,0.02c-1.2,0.69-0.95,1.89-1.02,2.97
	c0,0-0.48,0.01-0.48,0.01L524.55,489.88z"/>
<path class="st5" d="M619.55,398.91c1.33,1.54,4.21,1.23,4.69,4.42c-3.13-1.39-6.74-1.35-7.73-5.43
	C617.52,398.24,618.53,398.58,619.55,398.91z"/>
<path class="st34" d="M614.51,397.9c0.33-1-1.17-2,0.02-3c1.31,0.58,1.97,1.59,1.99,3.02C615.86,397.92,615.18,397.91,614.51,397.9z
	"/>
<path class="st47" d="M580.53,454.9c-1,0-2.01,0-3.01,0c-1.48-1.04-2.55-0.93-2.98,1.04c-0.33,0.32-0.66,0.65-0.99,0.97
	c-0.73,0.37-1.24,0-1.56-0.59c-1.42-2.61-1.4-2.61-3.45-1.44c0.07-5.31-3.24-9.33-5.41-13.77c-1.3,0.86-0.07,2.53-1.63,4.48
	c0-3.11,0-5.38,0-7.65c-0.78-1.02-0.8-2.02,0.03-3.03c4.06-0.58,8.06-0.39,11.98,0.95c2.2,3.27-0.62,6.07-0.85,8.92
	c0.54-0.82,0.39-3.33,2.51-1.05c0.77-0.86-0.42-1.54-0.2-2.31c0.49-2.47-0.26-5.04,0.55-7.48c1.51-0.39,2.26,2.32,4,0.98
	c2.5,3.66-0.04,7.34-0.01,11.02c0.01,1.92-1.07,3.86,0.12,5.76c0.47,0.57,0.87,1.18,1.17,1.86
	C580.95,454.05,580.85,454.5,580.53,454.9z"/>
<path class="st6" d="M596.51,408.92c3.28-0.06,4.09-2.58,5.01-5c1,2.3,2.02-0.29,3.04,0.02c-0.08,2.38,2.08,3.15,3.69,4.96
	c-4.43,0.84-6.54,4.35-9.16,7.15c-1.08,1.16-2.61,2.35-3.46,2.01c-1.78-0.71-0.78-2.44-0.35-3.87
	C595.8,412.46,596.11,410.67,596.51,408.92z"/>
<path class="st27" d="M561.53,434.93c-0.01,1.01-0.02,2.02-0.03,3.03c0,0-0.48-0.02-0.48-0.02l-0.48,0
	c-0.57-0.12-0.72-0.67-1.05-1.02c-2.13,2.75-0.12,6.09-1.29,9.01c-1.53-0.96,0.03-2.87-1.3-4.03c-1.05,2.67,0.67,5.88-1.76,8.12
	c-0.04,0.04-0.33-0.06-0.37-0.16c-0.13-0.29-0.19-0.62-0.28-0.93c-2.02-3.34-0.91-6.68,0.01-10.02
	C555.9,435.9,558.82,435.6,561.53,434.93z"/>
<path class="st47" d="M547.52,451.92l-0.49-0.01c0,0-0.49,0-0.49,0c-1.19-4.33,1.81-6.99,4.01-9.96c3.14,2.72,3.14,6.6-0.01,10.98
	l0,0C549.12,453.79,549.2,450.23,547.52,451.92z"/>
<path class="st42" d="M606.51,403.92c0.85-1.63,3.13-0.39,3.99-1.99c0.97,0.61,1.9,1.31,2.93,1.82c1.01,0.5,2.12,0.81,3.17,1.2
	c-1.18,3.75-4.46,0.06-6.08,1.97C609.05,406.09,607.24,405.72,606.51,403.92z"/>
<path class="st48" d="M550.53,452.92c0.78-3.66,2.12-7.32,0.01-10.98c0.41-0.83,1.16-1,1.98-1.03c0.19,0.2,0.39,0.4,0.59,0.6
	c1.66,3.74-1.17,7.65,0.41,11.39C552.53,454.51,551.53,453.17,550.53,452.92z"/>
<path class="st48" d="M554.51,438.9c1.01,3.34-0.07,6.68-0.01,10.02c0,0-0.47,0-0.47,0l-0.47,0.01c-1.39-2.53,0.33-5.45-1.01-7.98
	c0,0-0.03-0.05-0.03-0.05C553.19,440.24,553.85,439.57,554.51,438.9z"/>
<path class="st41" d="M551.21,438.51c-1.05-1.7-0.73-2.89,0.02-4.5C552.92,435.58,552.77,436.79,551.21,438.51z"/>
<path class="st45" d="M570.32,425.18c0,1.88,0,3.76,0,5.65C569.24,428.9,569.47,426.96,570.32,425.18z"/>
<path class="st42" d="M610.51,406.92c0.91,0.71,2.4,0.45,2.94,1.76c-0.64,0.08-1.29,0.16-1.93,0.23
	C609.76,408.97,610,408.01,610.51,406.92z"/>
<path class="st9" d="M568.54,454.88c0.77-1.01,1.54-2.02,2.37-3.11c2.29,0.97,0.79,3.95,2.64,5.14c-1.26,1.43-0.45,3.69-1.99,5.01
	c-0.3-1.03-2.45,1.26-2.08-1.23C569.77,458.72,569.64,456.69,568.54,454.88z"/>
<path class="st48" d="M547.52,451.92c1.33-0.7,0.73-2.3,1.45-3.49c2.13,1.1-0.6,3.65,1.56,4.49c-0.42,0.69-0.84,1.38-1.26,2.07
	C548.69,453.96,548.11,452.94,547.52,451.92z"/>
<path class="st33" d="M569.53,477.88c0.9-0.25,1.54-2.13,2.08-1.4c1.13,1.52-0.06,3.09-1.06,4.44
	C570.21,479.9,569.87,478.89,569.53,477.88z"/>
<path class="st49" d="M559.49,436.91c0.35,0.34,0.7,0.68,1.05,1.02c0,1.93,0,3.86,0,5.79c-0.35,0.01-0.7,0.02-1.05,0.03
	C559.49,441.48,559.49,439.19,559.49,436.91z"/>
<path class="st0" d="M571.46,417.92c0.17-1.03,0.61-2.23,1.78-1.76c2.29,0.92,0.9,3.13,1.25,4.74c-0.99-0.66-1.99-1.33-2.98-1.99
	C571.52,418.58,571.51,418.25,571.46,417.92z"/>
<path class="st28" d="M563.07,413.4c0.64,1.78-0.13,3.39-0.73,3.37c-1.66-0.05-0.39-1.22-0.24-1.89
	C562.19,414.46,562.59,414.11,563.07,413.4z"/>
<path class="st22" d="M471.5,457.92c-0.31-0.01-0.62-0.01-0.94-0.01c-1.48-1.04-0.87-2.62-1.03-4
	C471.49,454.61,470.33,456.83,471.5,457.92z"/>
<path class="st13" d="M440.54,421.94c0.11-1.34-0.89-2.29-1.51-3.43c1.85-0.65,2.3,1.23,3.51,1.4c0.33,0.33,0.66,0.67,0.99,1
	c-1.05,1.82,0.04,2.6,1.52,3.28c1.85,0.85,3.65,1.8,5.47,2.71c0.34,0,0.68,0.01,1.02,0.01c-0.32,0.33-0.64,0.66-0.96,0.99
	C445.09,429.54,442.37,426.49,440.54,421.94z"/>
<path class="st6" d="M466.58,431.51c0.41,0.47,0.98,0.89,1.19,1.44c0.25,0.66-0.43,0.85-0.81,0.57c-0.48-0.35-0.78-0.96-1.15-1.46
	C466.03,431.91,466.24,431.76,466.58,431.51z"/>
<path class="st9" d="M457.55,454.91c1.16,1.11,2.15,2.28,1.64,4.23C457.58,458.01,457.55,456.46,457.55,454.91
	C457.54,454.91,457.55,454.91,457.55,454.91z"/>
<path class="st10" d="M455.54,418.91c-2.53-0.8-2.71-3.94-4.97-5c-0.69-2.98-3.18-4.79-4.74-7.2c-0.61-0.93-1.75-1.69-0.28-2.79
	c1.43,0.57,2.15,1.86,3.01,3c0.99,0.34,1.98,0.67,2.97,1.01c0.77,0.44,1.61,0.85,1.02,1.99c0,0.33,0,0.66,0,0.99
	c-0.09,3.37,4.04,4.66,3.97,8.02C456.19,418.92,455.87,418.92,455.54,418.91z"/>
<path class="st44" d="M474.53,386.93c-1.78-1.78-0.69-4.01-0.96-6.02c0.32,0.01,0.65,0.01,0.97,0.01c0.33-0.48,0.66-0.49,1,0
	C474.35,382.78,474.53,384.87,474.53,386.93z"/>
<path class="st5" d="M471.55,398.92c0-3.24,0-6.48,0-9.72c0.55,3.25,1.99,6.53-0.01,9.7C471.54,398.9,471.55,398.92,471.55,398.92z"
	/>
<path class="st9" d="M456.42,404.76c-1.22-2.16-0.75-3.51-0.75-5.63C456.9,401.23,456.4,402.58,456.42,404.76z"/>
<path class="st2" d="M572.35,473.46c0.63-2.29,1.25-4.57,1.88-6.86c0.41,0.11,0.83,0.22,1.24,0.33c-0.73,2.38-1.46,4.76-2.19,7.13
	C572.97,473.87,572.66,473.67,572.35,473.46z"/>
<path class="st50" d="M574.53,455.94c-0.89-0.63-1.49-1.79-0.52-2.28c1.18-0.59,2.89-0.72,3.5,1.24
	C576.52,455.25,575.52,455.59,574.53,455.94z"/>
<path class="st50" d="M580.51,453.9c1.34-0.52,2.69-0.93,4.03-0.01c-0.44,0.82-1.21,0.99-2.05,1.04c-0.66-0.01-1.32-0.02-1.97-0.03
	C580.52,454.57,580.51,454.24,580.51,453.9z"/>
<path class="st20" d="M575.51,445.9c0.01-1.32,0.02-2.65,0.03-3.97C576.68,443.27,577.5,444.6,575.51,445.9z"/>
<path class="st7" d="M582.51,447.9c0-2.33,0.01-4.66,0.01-6.98c1.94,2.33,0.61,5.07,0.95,7.6c0.01,0.1-0.16,0.22-0.25,0.33
	C582.99,448.53,582.75,448.22,582.51,447.9z"/>
<path class="st35" d="M587.52,441.91c0,2,0,4-0.01,6C586.01,445.9,586,443.91,587.52,441.91z"/>
<path class="st46" d="M538.52,406.92c-1.54-1.47-1.05-3.18,0-4.93C538.53,403.63,538.53,405.27,538.52,406.92L538.52,406.92z"/>
</svg>
