<?xml version="1.0" encoding="utf-8"?>
<!-- Generator: Adobe Illustrator 24.1.2, SVG Export Plug-In . SVG Version: 6.00 Build 0)  -->
<svg version="1.1" id="Слой_1" xmlns="http://www.w3.org/2000/svg" xmlns:xlink="http://www.w3.org/1999/xlink" x="0px" y="0px"
	 viewBox="0 0 1366 768" style="enable-background:new 0 0 1366 768;" xml:space="preserve">
<style type="text/css">
	.st0{fill:#212316;}
	.st1{fill:#706F4E;}
	.st2{fill:#3A3727;}
	.st3{fill:#ECE5DD;}
	.st4{fill:#DCB8AC;}
	.st5{fill:#BFBDA1;}
	.st6{fill:#626E50;}
	.st7{fill:#242519;}
	.st8{fill:#737251;}
	.st9{fill:#393626;}
	.st10{fill:#535F46;}
	.st11{fill:#B5B88A;}
	.st12{fill:#7C886A;}
	.st13{fill:#616D50;}
	.st14{fill:#616D4F;}
	.st15{fill:#2E372A;}
	.st16{fill:#909C7B;}
	.st17{fill:#ABB38E;}
	.st18{fill:#4A553F;}
	.st19{fill:#D1A297;}
	.st20{fill:#EBE3DB;}
	.st21{fill:#564E39;}
	.st22{fill:#525D46;}
	.st23{fill:#EBE4DB;}
	.st24{fill:#C7C99E;}
	.st25{fill:#394130;}
	.st26{fill:#3A4231;}
	.st27{fill:#D2A399;}
	.st28{fill:#636F52;}
	.st29{fill:#AAB38E;}
	.st30{fill:#C9CAA2;}
	.st31{fill:#ACAF83;}
	.st32{fill:#9BA483;}
	.st33{fill:#DDB9AD;}
	.st34{fill:#889270;}
	.st35{fill:#424D39;}
	.st36{fill:#6B775A;}
	.st37{fill:#8C9572;}
	.st38{fill:#25261A;}
	.st39{fill:#737E5F;}
	.st40{fill:#99A281;}
	.st41{fill:#2B2E1F;}
	.st42{fill:#556149;}
	.st43{fill:#645F4A;}
	.st44{fill:#424A38;}
	.st45{fill:#70704F;}
	.st46{fill:#949A6E;}
	.st47{fill:#3A3827;}
	.st48{fill:#58513C;}
	.st49{fill:#3B4432;}
	.st50{fill:#EBE1DA;}
	.st51{fill:#707A5D;}
	.st52{fill:#6E6D4F;}
	.st53{fill:#DDBAAF;}
	.st54{fill:#FDFDFD;}
	.st55{fill:#635F46;}
	.st56{fill:#747551;}
	.st57{fill:#9CA483;}
	.st58{fill:#CFA59A;}
	.st59{fill:#999B87;}
	.st60{fill:#4A4A3F;}
	.st61{fill:#39392B;}
	.st62{fill:#73736A;}
	.st63{fill:#5D5D53;}
	.st64{fill:#3A3B2E;}
	.st65{fill:#D2A499;}
	.st66{fill:#404B38;}
	.st67{fill:#3F3D2E;}
	.st68{fill:#8C9776;}
	.st69{fill:#D1A196;}
	.st70{fill:#544C38;}
	.st71{fill:#DBB6AA;}
	.st72{fill:#554D39;}
	.st73{fill:#DCB7AB;}
	.st74{fill:#DCB7AC;}
	.st75{fill:#3E3B2A;}
	.st76{fill:#EBE2DA;}
	.st77{fill:#303021;}
	.st78{fill:#A19674;}
	.st79{fill:#7B8462;}
	.st80{fill:#515D45;}
	.st81{fill:#A09574;}
	.st82{fill:#3D3928;}
	.st83{fill:#D0A297;}
	.st84{fill:#D2ADA0;}
	.st85{fill:#595440;}
	.st86{fill:#A6AF8A;}
	.st87{fill:#909669;}
	.st88{fill:#556048;}
	.st89{fill:#3A4230;}
	.st90{fill:#9AA072;}
	.st91{fill:#A7B08B;}
	.st92{fill:#3E4937;}
	.st93{fill:#5D694E;}
	.st94{fill:#7C8769;}
	.st95{fill:#748062;}
	.st96{fill:#939E7D;}
	.st97{fill:#A9B18C;}
	.st98{fill:#B4BC9C;}
	.st99{fill:#DDCDC0;}
	.st100{fill:#A09573;}
	.st101{fill:#859070;}
	.st102{fill:#605841;}
	.st103{fill:#7A7556;}
	.st104{fill:#677254;}
	.st105{fill:#788466;}
	.st106{fill:#707B5A;}
	.st107{fill:#59523B;}
	.st108{fill:#ECE4DC;}
	.st109{fill:#BFBCA0;}
	.st110{fill:#7F8865;}
	.st111{fill:#5C563E;}
</style>
<path class="st0" d="M723.49,295.54c4.17,11.87,6.39,24.07,6.08,36.68c-0.87,1.68-0.02,3.59-0.7,5.29c-1.81,4.7-0.13,8.81,2.1,12.86
	c3.9,7.07,7.2,14.41,9.73,22.08c0.93,1.97-0.05,3.21-1.7,3.99c-1.47,0.69-2.49-0.45-3.5-1.29c-0.64-0.54-1.33-1.19-1.47-1.98
	c-1.45-8.46-8.36-9.85-14.96-11.7c-1.45-0.41-2.93-0.6-4.4-0.83c-4.2-0.96-5.74,1.06-5.71,5c0.03,2.78-0.09,5.57,0.56,8.32
	c-0.22,1.54,0.06,3.62-2.65,2.49c-1.13-3.35-2.7-6.44-5.15-9.03c-0.59-2.98,0.51-6.5-2.81-8.62c-0.34-0.21-0.53-0.93-0.09-1.32
	c3.59-3.12,1.07-6.23,0-9.34c-0.58-7.78-3.54-14.69-7.7-21.17c-0.8-1.24-1.74-2.43-1.74-4.02c1.81-2.13,3.23-0.3,4.55,0.61
	c3.77,2.59,7.84,4.81,11.15,7.95c1.69,1.61,2.38-0.03,3.52-0.27c3.87,1.46,3.69,6.32,6.95,8.26c1.44,0.3,1.64-0.73,1.81-1.72
	c1.33-7.47,3.16-14.82,5.28-22.09c1.55-5.32,0.77-10.46-0.72-15.61c-0.41-1.43-1-2.83-1.09-4.31c-0.07-1.24-0.34-3.07,1.44-3.08
	C723.84,292.69,722.75,294.7,723.49,295.54z"/>
<path class="st1" d="M706.88,376.45c2.07-0.05,1.65-1.59,1.7-2.85c-0.82-3.94-0.77-7.97,2.88-10.27c4.25-2.67,8.27-0.49,11.94,2.07
	c1.97,1.35,3.18,3.33,4.32,5.36c5.22,6.94,7.94,15.4,13.41,22.19c1.62,3.68,6.16,2.94,8.46,5.57c1.96,1.55,0.99,3.7,1.03,5.56
	c0.12,7.11,0.05,14.22-0.79,21.7c-3.11-5.36-6.5-10.57-9.24-16.11c-2.95-5.96-6.7-10.66-13.52-12.1
	c-8.23-1.73-11.71-8.78-16.23-14.6C709.29,380.98,708.19,378.64,706.88,376.45z"/>
<path class="st2" d="M723.49,295.54c-0.43-0.66-0.86-1.32-1.59-2.44c-0.39,3.91,1.36,6.97,2.26,10.05
	c1.67,5.72,0.84,11.47-0.97,16.48c-2.32,6.45-3.15,13.06-4.6,19.61c-0.52,2.34-1.56,3.81-3.95,1.52c2.39-10.15,4.54-20.31,0.23-30.5
	c-0.9-2.64-1.95-5.24-1.97-8.09c0.08-0.48,0.18-1.15,0.56-1.29c5.72-2.04,5.73-2.03,4.09-8.67c-0.2-9.55-0.81-19.07-0.76-28.62
	c0.45-2.02,0.47-4.04-0.05-6.06c-0.05-1.02-0.04-2.04-0.05-3.06c-0.51-2.94,0.01-6.02-1.15-8.87c-1.76-0.73,0.45-1.28,0.09-1.95
	c-0.15-2.39-1.79-4.96,0.85-7.02c2.82,12.31,5,24.68,3.94,37.4c-0.4,4.83,0.79,9.54,1.54,14.23
	C722.34,290.66,725.6,292.51,723.49,295.54z"/>
<path class="st3" d="M642.68,296.59c0.75-6.11-3.62-10.69-4.81-16.22c1.15-1.28,0.51-2.78,0.57-4.21c0.1-2.21-0.38-5.13,2.59-5.58
	c2.51-0.38,2.58,2.43,3.42,4.09c0.21,0.45,0.35,1.29,0.59,1.31c6.45,0.66,7.1,8.13,12.21,10.35c0.58,0.25,1.21,0.81,1.36,1.41
	c1.76,6.84,7.17,11.31,10.88,16.88c0.47,0.71,0.68,1.51,0.05,2.28c-1.79,0.99-3.4,0.2-5.03-0.49c-2.94-1.3-5.4-3.14-7.09-5.95
	c-0.95-1.58-2.16-2.98-4.07-3.42c-3.68-0.84-5.58-3.13-5.53-8.16c-0.25,4.53,0.95,8.3-3.93,9.3
	C643.1,297.94,642.51,297.56,642.68,296.59z"/>
<path class="st4" d="M672.73,265.49c11.88,6.13,24.27,11.43,34.01,21.03c-0.68,0.75-0.54,2.02-1.61,2.54
	c-1.85,0.27-3.11-0.6-4.05-2.09c-2.36-4.23-7.22-5.04-10.77-7.64c-3.55-2.61-7.79-4.33-11.88-6.14c-1.82-0.8-3.54-1.23-5.03,0.34
	c-5.06,5.36-11.77,4.32-18.1,4.77c-1.85-0.86-2.79-2.18-2.16-4.29c3.31-1.89,6.97-0.49,10.43-1.31c-3.53-1.65-7.5-0.88-11.2-1.7
	c-1.94-1.1-1.96-3.39-0.54-3.9c4.07-1.48-1.08-2.12-0.08-3.11c1.64-1.49,0.94-4.19,2.86-5.52
	C659.9,262.79,666.41,263.89,672.73,265.49z"/>
<path class="st5" d="M671.74,365.66c-7.92-0.77-14.56-4.88-20.37-9.58c-7.41-6-16.31-8.54-24.47-12.76c-1.75-0.91-3.52-1.8-5.27-2.7
	c0.8-1.73,2.58-1.53,4.01-2.03c3.94,0.01,7.88,0.03,11.82,0.04c0.42,0.09,0.6,0.35,0.53,0.77c9.88,4.42,18.5,10.63,26.19,18.21
	c2.52,2.49,6.3,2.95,8.9,5.35c0.64,0.79,1.14,1.62,0.77,2.69C673.15,366.06,672.45,366.08,671.74,365.66z"/>
<path class="st6" d="M750.51,474.45c-0.01,1.7-0.02,3.4-0.03,5.09c-0.8,0.97-2.72-0.94-3.06,1.2c-3.2-1.72-6.44-3.37-9.46-5.39
	c-1.8-2.02-4.61-1.83-6.76-3.1c-2.97-2.6-4.98-5.75-5.51-9.73c0.01-1.05,0.03-2.1,0.04-3.15c1.54-2.36,2.74-0.11,3.58,0.55
	c1.98,1.56,3.26,0.7,4.61-0.71c3.52,1.24,6.74,3.33,10.56,3.72c1.1,0.72,1.51,1.84,1.75,3.05
	C746.3,469.49,749.47,471.43,750.51,474.45z"/>
<path class="st7" d="M642.68,296.59c0.31,0.35,0.63,0.7,0.94,1.04c2.79,0.84,3.22,4.43,6.07,5.19c1.23,0.58,2.44,1.21,3.7,1.74
	c1.93,0.83,3.92,1.47,5.89,2.19c2.11,0.8,4.35,0.33,6.51,0.62c4.07,0.69,8.04,1.72,11.9,3.18c0.97,0.4,1.79,0.98,2.21,1.99
	c-0.86,2.77-3,1.99-4.83,1.6c-2.9-0.61-5.79-1.21-8.72-1.65c-1.73-0.26-3.28-0.25-4.46,1.26c-0.62,0.41-1.31,0.54-2.04,0.5
	c-2.61-0.32-4.95-1.39-7.23-2.64c-0.62-0.32-1.19-0.71-1.74-1.13c-2.64-1.29-4.06-4.37-7.21-4.9c-2-1.33-4-2.66-6-3.99
	c-0.84-1.6,1.94-1.52,1.38-2.99c-2.78-4.68-5.57-9.37-8.35-14.05c-0.74-1.2-0.69-1.99,0.99-1.97
	C635.36,287.23,639.02,291.91,642.68,296.59z"/>
<path class="st8" d="M717.86,262.47c0.85,10.34,0.9,20.7,0.75,31.06c-1.72,1.27-3.38,0.29-5.06-0.14c-1.47-0.83-2.46-1.89-1.84-3.75
	c0.02-3.94,0.03-7.88,0.05-11.82c0.92-1.65-0.01-3.55,0.73-5.23c0.75-2.93,1.51-5.85,2.26-8.78c1.07-1.97-0.24-4.29,0.89-6.25
	c0.06-1.68,0.13-3.36,0.19-5.04c1.83-0.26,1.02,1.59,1.76,2.2c0.02,0.94,0.04,1.87,0.06,2.81
	C717.08,259.2,717.88,260.82,717.86,262.47z"/>
<path class="st9" d="M726.76,371.45c-1.03-1.63-2.07-3.27-3.1-4.9c-1.96-1.47-3.78-3.11-6.32-3.65c-1.65-0.36-3.16-1.14-2.67-3.35
	c6.24,0.23,11.79,2.63,17.14,5.59c2.71,1.51,2.21,4.51,2.9,6.92c0.56,1.97,2.15,3.26,3.64,3.57c1.51,0.32,2.17-1.63,2.37-3.18
	c2.08,4.81,3.22,9.86,3.79,15.06c-2.02,0.71-0.81,4.04-3.45,4.25c-1.36-0.56-2.2-1.74-2.21-3.02
	C738.74,380.18,732.86,375.76,726.76,371.45z"/>
<path class="st10" d="M733.65,459.53c0.1,2.74,0.16,4.96-3.58,2.35c-1.3-0.9-2.11-3.12-4.34-2.5c-1.53-5.34-4.28-10.29-5-15.88
	c2.39-1.91,4.23-0.44,6.04,1.02c1.62,1.3,2.82,3.23,5.15,3.47c3.72,2.35,5.82,6.36,9.23,9.04c0.64,0.74,1.11,1.56,1.09,2.58
	c-0.09,0.48-0.31,0.89-0.67,1.22C738.7,461.82,736.51,458.62,733.65,459.53z"/>
<path class="st11" d="M725.68,462.52c2.97,2.34,3.04,6.57,5.85,9.01c1.27,1.15,2.8,2.14,2.62,4.19c-1.24,2.36-3.19,1.84-4.52,0.55
	c-4.56-4.45-11.01-6.08-15.45-10.64c-1.4-1.01-2.39-2.36-3.19-3.86c-0.93-2.35-2.7-4.38-2.67-7.09c0.73-3.09,2.13-4.46,4.91-1.77
	c1.52,1.47,3.79,2.04,4.84,4.07c0.57,3.04,1.96,5.2,5.47,5.06c0.45-0.01,0.85,0.14,1.19,0.44
	C725.04,462.48,725.36,462.5,725.68,462.52z"/>
<path class="st12" d="M707.67,521.47c-1.7,1.59-4.02,1.53-6.05,2.24c-4.41,0.59-8.85,0.12-13.27,0.27
	c-0.52,0.03-1.05-0.03-1.56-0.17c-0.52-4.19,3.24-4.37,5.54-5.91c3.45-1.41,7.24-2.41,8.04-6.91c1.39-2.55,3.83-4,5.99-5.75
	c4.06-2.31,7.78-5.68,13.05-4.16c0.95,2.59-1.46,2.82-2.74,3.74c-2.93,2.12-6.6,3.18-8.86,6.23
	C704.31,514.47,705.63,517.96,707.67,521.47z"/>
<path class="st13" d="M735.82,488.31c3.31,2.05,6.62,4.09,9.94,6.14c0.57,1.55,3.48,1.73,2.8,3.66c-0.71,2.01-3.05,1.56-4.83,1.61
	c-2.52,0.07-4.94-0.44-7.18-1.66c-3.54-1.99-7.32-3.54-10.63-5.93c-2.33-1.68-4.34-3.5-3.96-6.75c0.15-0.52,0.44-0.94,0.87-1.26
	c3.38-0.48,6.68-0.2,9.88,1.02C733.95,486,735.04,487,735.82,488.31z"/>
<path class="st14" d="M707.67,521.47c-4.98-4-5.04-4.8-0.91-11.05c1.15-0.63,2.11-1.56,3.35-2.05c2.47-0.97,2.53-0.95,4.12,2.08
	c2.78-2.69,4.43-6.63,8.62-7.73c0.73-0.02,1.39,0.16,1.95,0.66c-2.45,4.67-3,10.29-7.02,14.19
	C714.87,520.05,711.44,521.19,707.67,521.47z"/>
<path class="st15" d="M732.7,486.6c-2.99-2.15-6.87-0.24-9.91-2.18c-1.39,0.94-2.28,0.05-3.16-0.87c-1.33-0.99-2.66-1.99-3.99-2.98
	c-1.07-1.7-0.05-2.4,1.4-2.82c0.95-0.28,1.8-0.02,2.66,0.79c-1.36-1.54-3.43-1.32-4.81-2.43c-0.94-0.76-1.93-1.59-1.51-2.85
	c0.51-1.54,1.88-0.98,2.95-0.68c1.43,0.4,2.89,0.7,4.3,1.16c6.94,6.13,15.5,8.95,24.05,11.82c2.11,1.09,4.81,1.33,5.87,3.97
	c0.06,1.89,0.72,4.07-2.61,1.9c-2.74-1.78-5.99-2.78-9.01-4.13C736.91,486.49,734.67,487.72,732.7,486.6z"/>
<path class="st16" d="M740.57,457.67c-3.72-2.32-5.97-6.07-8.87-9.19c-3.12-1.89-5.66-4.22-6.06-8.14c2.55-1.13,3.53,0.95,4.81,2.4
	c-1.04-1.67-2.55-3.25-0.74-5.31c6.62,3.07,13.24,6.14,19.86,9.21c-0.73,3.18-3.1,2.42-5.04,1.82c-2.09-0.64-3.9-0.52-5.69,0.62
	c-0.7,0.61-0.83,1.32-0.37,2.14c0.52,1.35,1.41,2.46,2.32,3.57c0.24,0.36,0.39,0.76,0.49,1.18
	C741.32,456.66,741.17,457.26,740.57,457.67z"/>
<path class="st17" d="M706.61,506.4c-1.99,1.69-3.98,3.37-5.97,5.06c-1.98,2.46-4.67,3.32-7.69,3.43c-2.7-1.72-1.25-3.29,0.38-4.5
	c3.55-2.63,4.25-5.5,1.25-8.97c0.11-5.04,5.06-10.82,11.09-12.95c2.28,0.27,3.81,1.21,3.43,3.85c-2.1,2.34-4.19,4.68-7.66,4.98
	c-0.79,0.07-1.69,0.51-0.74,1.61c0.29,0.18,0.76,0.34,0.8,0.56C702,502.67,704.46,504.42,706.61,506.4z"/>
<path class="st18" d="M717.79,517.56c-0.32-0.52-0.64-1.05-0.95-1.57c5.37-2.43,2.47-10.06,7.86-12.48
	c0.39-2.51,2.27-3.83,4.14-5.15c0.4-0.24,0.83-0.4,1.28-0.5c0.72-0.06,1.38,0.11,1.96,0.55c4.39,3.24,4.39,3.24,0.68,9.11
	C728.33,511.73,723.06,514.65,717.79,517.56z"/>
<path class="st19" d="M651.77,263.99c1.27,0.64,2.55,1.27,4.04,2.02c-1.53,1.2-5.92,0.63-3.18,4.57c1.41,0.59,2.05,1.46,1.1,2.94
	c-0.16,1.75,0.13,3.29,1.99,4.05c0.32,0.37,0.46,0.79,0.42,1.28c-1.37,2.27-3.84,1.8-4.27,0.19c-1.3-4.87-4.67-4.65-8.34-4.37
	c-1.11-2.63,0.73-4.85,1.01-7.28c0.17-1.14,0.82-2.29-0.05-3.41c-1.31-1.28-3.92-0.04-4.63-2.42c-1.09-1.27-1.17-2.48-0.12-3.91
	c1.15-1.56,2.27-0.37,3.46-0.28C647.53,257.7,648.36,262.5,651.77,263.99z"/>
<path class="st20" d="M649.68,339.6c0.01-4.19-3.2-7.24-3.94-11.17c4.49-0.63,8.26,1.9,11.28,7.56c-0.59,5.25,3.35,8.21,6.08,11.72
	c2.69,3.46,6.71,5.76,8.74,9.84c0.06,0.85-0.4,1.3-1.17,1.51c-4.61-0.75-7.25-4.31-10.28-7.3c-3.41-3.36-6.03-7.48-9.94-10.36
	C649.88,340.93,649.41,340.42,649.68,339.6z"/>
<path class="st21" d="M699.77,348.45c2.01,3.27,4.84,6.56-0.38,9.83c4.38,2.21,5.07,5.29,2.34,9.14c-2.01-0.7-4.02-1.4-6.03-2.11
	c-0.33-0.97-0.91-1.71-1.89-2.08c-1.87-0.6-4.54,0.9-5.49-2.09c0.77-2.69,1.9-5.23,3.16-7.72
	C696.24,355.12,697.53,350.99,699.77,348.45z"/>
<path class="st22" d="M720.55,474.58c-2.21,0.28-4.14-0.84-7.4-1.72c2.34,3.51,6.58,2.79,7.87,5.99c-1.7,0.86-4.79-2.16-5.38,1.72
	c-4.52-4.51-9.67-8.44-12.95-14.09c-1.15-2.32,0.46-2.53,2.08-2.73c2.07,0.35,3.3,2.09,4.99,3.08c0.94,0.55,1.83,1.66,2.93,0.23
	c0.72-0.58,1.51-0.97,2.46-0.93C717.48,468.62,721.01,470.32,720.55,474.58z"/>
<path class="st23" d="M645.65,326.24c-0.26-4.91-1.4-9.76-1-14.72c-0.66-0.9-0.45-1.87-0.28-2.85c2.97-1.02,3.74,1.57,5.15,3.11
	c0.71,1.26,1.36,2.55,1.95,3.88c0.73,2.3,1.9,4.44,2.65,6.74c0.61,2.42,2.39,4.73,0.67,7.36
	C651.06,330.36,648.63,327.59,645.65,326.24z"/>
<path class="st24" d="M724.72,462.47c-0.37,0.03-0.75,0.05-1.12,0.08c-3.28-0.18-4.69-2.51-5.9-5.09c-1.6-1.08-3.52-1.9-4.74-3.31
	c-1.85-2.16-2.99-1.51-4.26,0.36c-3.98-0.82-3.63-5.2-6.03-7.31c-1.21-2.04-2.86-3.9-2.92-6.46c0.33-2.77,1.75-2.83,3.66-1.4
	c2,1.49,3.36,3.57,4.98,5.42c1.25,1.43,2.1,3.43,4.36,3.68C716.74,453.11,720.73,457.79,724.72,462.47z"/>
<path class="st25" d="M725.77,440.52c1.98,2.65,3.95,5.31,5.93,7.96c-2.4,1.96-3.1-0.75-4.17-1.73c-1.99-1.81-3.74-3.82-6.8-3.26
	c-3.27-4.37-3.61-10.09-7-14.95c3.9,0.56,6.73,2.2,8.98,4.92c0.37,0.83-1.96,1.86,0.47,2.74
	C724.7,436.74,725.78,438.55,725.77,440.52z"/>
<path class="st26" d="M732.74,507.53c-0.97-0.71-0.33-1.44,0-2.13c0.91-1.9,5.13-4.36-0.9-5.09c-0.14-0.02-0.13-1.21-0.2-1.86
	c1.03-3.14,3.03-1.91,4.94-1.09c3.69,0.69,7.35,1.72,11.26,0.83c-0.2-1.99-2.37-1.68-3.1-2.81c-0.65-1.02,0.62-0.66,1.01-0.95
	c1.24,0.39,2.51,0.7,3.72,1.19c1.95,0.78,1.01,2.54,1.18,3.9c0.19,1.63-0.87,1.96-2.19,1.8
	C742.09,500.54,737.63,504.56,732.74,507.53z"/>
<path class="st27" d="M672.73,265.49c-5.64,1.58-15.75-2.34-18.1-7.02c0.46-2.04,0.92-4.09,1.6-7.09
	C661.07,257.48,667.12,261.21,672.73,265.49z"/>
<path class="st28" d="M694.7,449.44c-1.99-2.31-1.56-5.3-2.24-7.97c-0.72-2.03,0.24-4.25-0.69-6.26c0-1.13,0-2.25,0-3.38
	c0.76-1.37,0.14-2.94,0.65-4.35c0.87-1.1,1.96-1.54,3.34-1.16c0.97,0.88,1.31,2.11,1.77,3.27c0.62,2.8,2.47,5.35,1.75,8.43
	c-0.21,0.42-0.54,0.71-0.97,0.88c-2.38,0.47-0.91,1.98-0.7,3.01c0.36,1.76,1.31,3.34,1.91,5.03c0.39,1.33,0.99,2.63,0.66,4.08
	c-0.2,0.45-0.54,0.72-1.03,0.8C697.25,451.8,696.92,448.85,694.7,449.44z"/>
<path class="st29" d="M737.66,448.52c1.9-1.82,3.98-2.73,6.51-1.28c1.97,1.14,3.74,0.77,5.41-0.61c2.08,2.76,0.68,5.89,0.93,8.85
	c-1.8,0.45-1.28,1.92-1.38,3.12c-0.03,0.5-0.07,0.99-0.18,1.47c-0.27,1.25-0.07,3.04-1.54,3.36c-1.77,0.38-2.29-1.43-2.99-2.69
	c-0.12-0.45-0.14-0.91-0.08-1.37C744.33,454.4,739.73,452.24,737.66,448.52z"/>
<path class="st30" d="M683.77,525.58c-3.7,4.54-11.84,6.6-17.02,4.29c-0.71-0.32-1.74-0.44-1.71-1.5c0.02-0.91,0.76-1.38,1.52-1.77
	c3.51-1.84,7.06-3.56,11.01-4.24C678.27,526.08,681.94,524.06,683.77,525.58z"/>
<path class="st31" d="M698.8,438.48c-0.78-3.01-1.56-6.02-2.34-9.03c3.44-0.51,4.12,3.98,7.26,4.01c3.01,4.99,6.03,9.97,9.04,14.96
	c-3.15,1.88-3.94-1.37-5.14-2.75c-1.72-1.99-3.28-4.13-5.23-5.92c-1.25-1.15-1.61-0.25-1.81,0.88
	C699.02,440.71,698.79,439.69,698.8,438.48z"/>
<path class="st32" d="M708.67,492.5c0.22-2.26-2.04-2.66-3.01-4.03c4.25-2.79,9.48-2.79,13.97-4.92c1.29-0.57,2.21,0.2,3.16,0.87
	c-0.04,0.36-0.08,0.72-0.12,1.08c0.05,2.88,0.1,5.75-4.15,5.18c-1.58,0.07-3.18-0.1-4.79,0.42c-0.8,1.5,2.06,2.14,0.89,3.68
	c-0.63,0.45-1.34,0.58-2.1,0.55C710.94,494.79,708.78,495.04,708.67,492.5z"/>
<path class="st33" d="M645.68,266.55c0.95,3.06-2.39,5.06-1.99,7.99c0.25,0.25,0.33,0.5,0.23,0.74c-0.09,0.24-0.18,0.36-0.27,0.36
	c-1.75-0.95-0.27-4.55-2.5-4.2c-2.53,0.4-1.11,3.29-1.46,5.09c-0.28,1.45,0.83,3.54-1.83,3.86c-0.32-4.25-3.03-7.65-4.12-11.62
	c-0.32-1.18-1.87-2.56-0.4-3.55c1.11-0.74,2.48,0.26,3.43,1.27c0.76,1.64,1.95,1.2,3.17,0.66
	C641.92,267.61,643.69,265.96,645.68,266.55z"/>
<path class="st34" d="M694.57,501.43c4.47,2.25,4.68,5.3,0.82,8.92c-1.17,1.1-4.29,1.16-2.72,4.14c0.29,0.94-0.28,1.34-1.02,1.63
	c-2.07,0.21-3.24-0.96-4.06-2.66C690.36,509.69,690.82,504.61,694.57,501.43z"/>
<path class="st28" d="M705.57,464.54c-1.46-0.1-2.77,0.02-2.88,1.93c-2.78-3.68-4.1-8.06-5.92-12.19c2.84-2.08,3.35,1.45,4.94,1.76
	c-0.46-1.34-3.79-1.82-2.02-4.53l0,0c5.43,1.42,7.66,4.62,8.27,11.86C707.42,464.31,706.54,464.5,705.57,464.54z"/>
<path class="st35" d="M738.64,474.53c2.9,2.12,6.87,2.63,8.98,5.94c1.95-0.73,1.93,1.34,2.88,2.02c0,0.97-0.01,1.94-0.01,2.92
	c-1.97,0.86-3.89,0.23-5.82-0.2c-3.84-2.3-8.38-3.85-9.54-8.99C735.78,474.58,736.62,473.31,738.64,474.53z"/>
<path class="st36" d="M687.6,513.45c1.36,0.68,2.72,1.37,4.08,2.05c0.94,0.8-2.13,2.94,1.01,3c-1.79,1.9-4.74,2.29-6.1,4.73
	c-2.83,1.39-5.56,2.37-6.95-1.79C682.95,519.43,685.2,516.37,687.6,513.45z"/>
<path class="st37" d="M703.72,433.46c-4.47,2.38-4.45-3.37-7.26-4c-1.04-0.78-0.69-1.95-0.84-2.98c-2.63-2.69-3.12-5.95-2.5-9.5
	c0.31-0.54,0.75-0.68,1.31-0.43C697.22,422.35,700.12,428.1,703.72,433.46z"/>
<path class="st38" d="M741.62,391.56c0.22-1.24,0.53-2.48,0.63-3.73c0.05-0.7-0.78-1.75,0.52-1.81c0.55-0.03,1.15,0.96,1.73,1.49
	c1.7,3.67,3.4,7.34,5.1,11.01c-3.24-1.13-7.69-0.11-8.82-4.98C741.01,392.87,741.18,392.16,741.62,391.56z"/>
<path class="st39" d="M725.77,440.52c-0.65-2.51-5.93-3.02-3.06-7.06c2.33,1.32,4.67,2.64,7,3.96c-0.5,2.03,1.23,3.64,1.19,5.69
	C728.68,443.05,727.97,440.3,725.77,440.52z"/>
<path class="st40" d="M744.67,459.51c0.74,1.04,1.49,2.09,2.41,3.38c1.13-1.42-0.06-3.48,1.58-4.39c0.18,0.12,0.35,0.24,0.53,0.36
	c0.82,1.05,0.74,2.43,1.3,3.58c-0.01,2.06-0.02,4.12-0.03,6.17c-2.08,0.34-3.87,0.08-4.72-2.21c-0.4-0.94-0.8-1.87-1.2-2.81
	c-0.91-1.04-2.66-1.31-2.76-3.07c0.02-0.35,0.04-0.7,0.05-1.05C742.79,458.64,743.74,458.68,744.67,459.51z"/>
<path class="st41" d="M645.65,326.24c3.62-0.61,5.95,2.31,9,3.27c3.51,1.28,4.63,3.74,3.62,7.27c-0.5,0.12-0.95,0-1.34-0.33
	c-3.09-3.57-6.18-7.15-11.2-8.03c-0.32-0.61-0.65-1.23-0.97-1.84c0,0-0.03,0.03-0.03,0.03
	C645.08,326.58,645.38,326.46,645.65,326.24z"/>
<path class="st42" d="M699.68,451.51c-0.04,2.75,3.13,3.62,4.01,6.75c-2.77-1.45-4.25-3.87-6.92-3.98c-0.9-1.52-1.96-2.98-2.06-4.84
	c0.51-0.63-0.98-3.67,1.8-1.53C697.79,448.88,697.92,450.92,699.68,451.51z"/>
<path class="st43" d="M625.63,338.59c-0.85,1.64-2.58,1.54-4.01,2.03c-1.98-2.22-5.27-3.08-7.08-7.22
	C618.86,335.42,622.25,337,625.63,338.59z"/>
<path class="st44" d="M693.56,416.56c0.68,3.31,1.37,6.61,2.05,9.92c-0.93,0.34-1.87,0.67-2.8,1.01c-1.36-1.6-0.05-3.71-1.02-5.38
	c0.73-2.2-1.19-4.32-0.19-6.53c-0.48-0.78-0.5-1.98,0.31-1.99C693.83,413.57,692.98,415.55,693.56,416.56z"/>
<path class="st45" d="M673.71,365.49c-0.35-0.65-0.7-1.31-1.04-1.96c-0.67-0.92-0.9-1.88-0.35-2.94c0.77-0.86,1.76-0.98,2.83-0.83
	c1.21,0.28,2.19,0.95,3.07,1.8c1.08,1.56,2.82,1.79,4.48,2.18c0.41,0.17,0.74,0.45,1,0.81c-1.1,1.24-2.76,0.62-4.05,1.2
	C677.64,366.06,675.65,366.41,673.71,365.49z"/>
<path class="st46" d="M679.64,521.45c1.9,2.22,4.36,2.27,6.95,1.79c0,0,0.22,0.44,0.22,0.44c0.17,0.4,0.03,0.63-0.38,0.72
	c-1.17-0.25-1.78,0.75-2.65,1.18c-0.93,0.25-1.85,0.53-2.79,0.73c-3.55,0.78-5.14-0.15-3.41-3.95
	C678,521.47,678.91,521.66,679.64,521.45z"/>
<path class="st47" d="M682.75,364.28c-2.03,0.27-4.14,0.79-5.09-1.87c0.98-1.08,2.31-1.08,3.61-1.18c1.99-0.02,3.98,0.06,5.97-0.22
	c0.52-0.03,0.98,0.13,1.38,0.47c1.71,2.25,4.4-1.37,6.09,1.02c-0.4,2.78-2.69,0.93-3.95,1.6c-0.68,0.5-1.4,0.5-2.13,0.12
	C686.66,363.91,684.71,363.82,682.75,364.28z"/>
<path class="st48" d="M648.8,312.5c-1.32-1.41-2.64-2.82-3.95-4.23c-0.93-0.32-0.58-1.36-1.08-1.93c0.01-0.27-0.01-0.53-0.08-0.79
	c1.35-1.72,2.55-0.81,3.7,0.25c1.4,1.28,2.76,2.61,4.14,3.91c-0.52,0.97-0.76,2.1-1.57,2.92
	C649.53,312.91,649.15,312.87,648.8,312.5z"/>
<path class="st49" d="M745.75,466.41c1.57,0.74,3.14,1.47,4.72,2.21c0.01,1.94,0.03,3.89,0.04,5.83
	C748.08,472.26,744.91,470.52,745.75,466.41z"/>
<path class="st50" d="M645.68,266.55c-1.82,1.41-3.65,2.8-6.04,1.09c-0.81,0.15-1.14-0.17-0.96-0.98c0.07-1.12-0.16-2.33,0.96-3.12
	c2.03,1.66,4.04-0.06,6.05-0.03C647.19,264.53,646.03,265.53,645.68,266.55z"/>
<path class="st51" d="M744.72,484.41c1.96,0.09,3.98-0.11,5.77,1c0.02,1.37,0.04,2.74,0.06,4.11c-1.96-1.01-3.92-2.01-5.89-3.02
	C744.58,485.81,744.07,485.09,744.72,484.41z"/>
<path class="st52" d="M711.71,289.64c0.64,0.96,1.28,1.93,1.92,2.89c0.66,1.95,0.37,3.5-1.8,4.26c-1.79-1.83-5.11-2.55-4.49-6.15
	c0.89-1.27,2.29-0.55,3.42-0.89C711.07,289.62,711.38,289.58,711.71,289.64z"/>
<path class="st53" d="M645.7,263.5c-2.01,1.54-4.01,5.54-6.05,0.03c0.07-0.66,0.13-1.33,0.2-1.99
	C641.35,263.52,644.66,260.14,645.7,263.5z"/>
<path class="st54" d="M686.42,524.4c0.14-0.23,0.27-0.47,0.38-0.72c4.94,0.01,9.88,0.01,14.81,0.02
	C696.62,525.4,691.49,524.13,686.42,524.4z"/>
<path class="st55" d="M643.66,339.37c0.68,0.11,1.37,0.23,2.05,0.34c2.21,0.63,5.55,0.69,2.13,4.18c-2.76-0.14-5.21-0.69-5.51-4.13
	C642.65,339.24,643.1,339.1,643.66,339.37z"/>
<path class="st56" d="M647.69,343.58c2-2.65-0.67-2.91-1.98-3.87c1.32-0.04,2.64-0.08,3.97-0.11c0.34,0.31,0.67,0.62,1.01,0.93
	c0.43,0.71,0.73,1.47,0.84,2.28c0.14,1.06,0.98,2.57-0.49,2.97C649.52,346.19,647.72,345.95,647.69,343.58z"/>
<path class="st57" d="M748.66,458.5c-0.56-1.44-1.87-3.03-0.31-4.35c0.99-0.84,1.34,0.99,2.16,1.33c-0.01,1.34-0.01,2.68-0.02,4.01
	c-1.04,0.51-1.28-0.48-1.8-0.95L748.66,458.5z"/>
<path class="st58" d="M710.76,289.75c-0.81,1.15-2.02,0.75-3.11,0.82c-1.14-0.17-2.28-0.34-1.99-1.97
	c-0.51-1.14-0.69-2.12,1.07-2.09C708.08,287.59,709.42,288.67,710.76,289.75z"/>
<path class="st59" d="M693.56,416.56c-0.47-0.77-0.94-1.54-1.41-2.32c-0.19,0.45-0.37,0.89-0.56,1.34
	c-1.01-1.43-1.14-2.97-0.57-4.64c2.66,1,2.51,3.62,3.39,5.61c0,0-0.43,0-0.43,0L693.56,416.56z"/>
<path class="st60" d="M631.7,282.54c-0.85,0.39-0.92,1.18-0.99,1.97c-1.57-1.26-2.2-2.98-2.47-5.17
	C630.02,279.93,630.99,281.08,631.7,282.54z"/>
<path class="st61" d="M717.6,254.72c-0.59-0.73-1.17-1.46-1.76-2.2c-0.11-2.31-0.21-4.61-0.32-6.92
	C717.38,248.38,716.95,251.67,717.6,254.72z"/>
<path class="st62" d="M634.73,300.46c-1.22,0-2.44,0-4.04,0c1.75-1.91,3.35-1.9,5.08-0.99C635.71,300.1,635.13,300.19,634.73,300.46
	z"/>
<path class="st63" d="M714.76,235.75c0.61,0,1.22,0,1.83,0c-0.08,0.29-0.12,0.59-0.12,0.9c-1.55,2.18-0.27,4.71-0.85,7.02
	C714.06,241.16,715.38,238.35,714.76,235.75z"/>
<path class="st64" d="M634.73,300.46c0.35-0.33,0.7-0.66,1.05-0.99c1.11-0.24,2.58,0.8,3.28-0.91c1.66,1.98-1.13,1.9-1.38,2.99
	C636.7,301.19,635.71,300.83,634.73,300.46z"/>
<path class="st65" d="M638.69,266.65c0.32,0.33,0.64,0.66,0.96,0.98c-0.1,1.1-0.49,2.1-1.76,1.34c-0.76-0.46-2.43-0.94-1.11-2.49
	C637.41,266.54,638.05,266.59,638.69,266.65z"/>
<path class="st66" d="M750.51,482.5c-1.51,0.1-1.82-1.49-2.88-2.02c0.21-2.56,1.87-0.72,2.85-0.94
	C750.49,480.53,750.5,481.51,750.51,482.5z"/>
<path class="st67" d="M690.76,364.11c1.06-1.16,3.07,0.02,3.95-1.6c1.4,0.56,1.88,1.44,0.99,2.8
	C694.07,364.85,692.58,363.8,690.76,364.11z"/>
<path class="st67" d="M682.75,364.28c1.95-1.15,3.9-1.19,5.87-0.05c-1.65,0.1-3.29,0.21-4.94,0.31
	C683.39,364.42,683.08,364.33,682.75,364.28z"/>
<path class="st54" d="M643.76,306.34c0.36,0.64,0.72,1.29,1.08,1.93c-0.06,1.08-0.13,2.17-0.19,3.25
	C643.02,310.02,643.91,308.09,643.76,306.34z"/>
<path class="st68" d="M748.69,458.54c0.6,0.32,1.2,0.64,1.8,0.95c0,0.98,0,1.96,0,2.94C749.39,461.37,748.79,460.07,748.69,458.54z"
	/>
<path class="st69" d="M715.73,309.53c5.1,9.48,2.63,19.27,1.19,29.01c-0.19,1.31-0.95,2.07-2.28,2.23c-2.05-3.05-4.1-6.1-6.15-9.14
	c-2.1-1.1-3.82-2.54-4.38-4.99c0.14-3.96-3.23-6.49-4.12-10.03c-0.11-1.14,0.23-2.46-0.55-3.37c-4.29-4.98-7.64-10.92-13.65-14.19
	c-4.33-2.36-6.84-1.41-8.44,2.77c-0.36,1.24-1.16,2.1-2.31,2.65c-2.6,1-3.24-0.71-3.52-2.67c-0.45-3.22-2.08-5.87-3.82-8.5
	c-1.21-1.83-2.22-3.41-5.07-2.78c-2.09,0.46-5.58-4.42-5.92-7.56c-0.28-2.61,1.75-2.27,3.29-2.57c4.12,0.78,8.46-0.97,12.47,1.08
	c6.13,1.58,11.49,5.07,17.71,6.66c3.83,0.98,7.08,4.24,9.15,8.08c1.13,2.1,1.7,4.84,5.02,4.58c0.29-0.02,0.66,0.26,0.82,0.53
	c1.89,3.31,4.84,5.1,8.39,6.22C714.4,307.79,714.98,308.87,715.73,309.53z"/>
<path class="st1" d="M699.77,348.45c-0.28,0.59-0.67,1.15-0.81,1.77c-1.37,6.19-1.35,6.19-7.2,3.35c-2.31-1.87-2.8-5.18-5.43-6.8
	c-2.11-7.41-6.21-13.25-13.23-16.79c-2.99-2.45-6.42-4.45-8.3-8.05c-0.75-3.38-5.34-4.43-5.12-8.4c0.67,0.02,1.34,0.03,2.01,0.05
	c7.87-1.02,15.51-0.28,22.65,3.38c2.35,1.2,4.66,2.64,5.26,5.58C695.12,330.35,699.95,338.42,699.77,348.45z"/>
<path class="st9" d="M689.61,322.54c-6.31-6.21-13.95-8.61-22.68-8.12c-1.74,0.1-3.69,0.64-5.23-0.84c-1.7-3.43,0.66-3.24,2.74-2.89
	c3.73,0.65,7.44,1.46,11.13,2.33c1.48,0.35,2.87,0.98,4.12-0.43c2.99-1.65,5.46,0.33,7.85,1.43c6.55,3.02,13.37,5.79,17.33,12.45
	c1.21,1.72,2.42,3.44,3.64,5.16c-1.38,0.92,0.14,2.07-0.21,3.38C701.88,330.87,696.34,325.79,689.61,322.54z"/>
<path class="st70" d="M714.67,359.54c0.93,2.24,3,2.81,5.02,3.54c1.73,0.63,3.19,1.69,3.97,3.46c-0.48-0.1-1.05-0.07-1.42-0.33
	c-8.91-6.43-13.81-1.38-13.66,7.38c-1.9-3.7-1.25-7.75-0.67-11.45C708.44,358.73,711.37,357.77,714.67,359.54z"/>
<path class="st21" d="M741.62,391.56c0.45,0.97,0.94,1.96-0.85,1.98c-2.76-1.27-4.25-3.9-5.1-6.37c-2.02-5.85-6.14-10.38-8.92-15.73
	c7.71,2.46,12.51,7.3,12.91,15.75C739.75,388.92,740.34,390.39,741.62,391.56z"/>
<path class="st71" d="M715.73,309.53c-4.03-1.7-9.36-1.42-10.79-7.1c-0.1-0.41-0.85-1.07-1-1c-5.53,2.61-3.99-3.2-5.63-4.96
	c-3.35-3.58-6.19-7.09-11.62-8.17c-4.86-0.97-9.36-3.73-14.02-5.7c1.77-2.53,4.21-2.14,6.73-1.62c5.74,1.19,11.12,3.28,16.25,6.1
	c1.85,1.02,3.66,2.39,6.02,2c5.26,0.79,7.18,5.59,10.47,8.74c1.11,1,0.98,2.51,1.52,3.75C714.35,304.23,715.04,306.88,715.73,309.53
	z"/>
<path class="st72" d="M713.65,301.57c-0.68-1-1.35-2-2.03-3c0.18-0.7-0.72-1.49,0.19-2.12c0.6-1.31,1.21-2.61,1.81-3.92
	c1.66,0.33,3.32,0.66,4.98,1c1.29,1.97,2.2,4.31,0.85,6.28C717.24,303.05,717.01,302.89,713.65,301.57z"/>
<path class="st61" d="M717.86,262.47c-1.55-1.58-1.24-3.24-0.2-4.93C718.37,259.15,719.48,260.75,717.86,262.47z"/>
<path class="st73" d="M659.72,281.52c-0.49,0.03-1.38-0.05-1.42,0.1c-0.74,2.92,1.76,4.81,2.5,7.31c0.48,1.66,1.91,1.09,2.95-0.24
	c1.42-1.81,2.25-0.27,2.9,0.83c2.46,4.17,6.38,7.67,6.07,13.14c-0.1,1.73,1.15,1.11,2.05,0.95c1.06,1.69,0.18,2.98-0.87,4.23
	c-0.44,0.31-0.93,0.5-1.47,0.59c-1.26-0.12-2.84,0.2-2.77-1.88c-3.77-3.42-5.32-8.72-9.79-11.57c-1.29-0.82-1.26-2.25-1.22-3.58
	c0.04-1.38-0.08-2.9-1.3-3.57c-3.57-1.95-6.51-4.29-7.55-8.5c-0.21-0.83-1.57-1.96-2.34-1.27c-4.41,3.91-2.96-1.01-3.81-2.43
	c0.01-0.37,0.02-0.73,0.03-1.1c0.75-0.27,1.67-0.34,2.23-0.83c3.33-2.89,4.9-1.22,5.64,2.19c0.54,2.47,0.9,4.8,4.2,2.57
	C657.87,278.47,659.79,278.71,659.72,281.52z"/>
<path class="st74" d="M649.36,303.77c-3.89-0.19-3.81-4.11-5.74-6.14c4.53-1.07,1.84-5.96,4.64-8.42c0.58,3.94,2.3,6.64,6.55,6.97
	c1.28,0.1,2.32,1.18,2.94,2.46c1.48,3.1,4.02,5.12,6.97,6.7c-2.66,2.25-4.67,0.02-6.86-0.97c-0.4-0.27-0.77-0.59-1.11-0.92
	C654.07,298.34,651.79,303.02,649.36,303.77z"/>
<path class="st75" d="M657.72,303.62c2.53-0.21,4.36,2.39,7,1.73c1.65,0.4,3.3,0.8,4.96,1.2c0.71,1.04,1.77,1.13,2.88,1.04
	c2.13,0.79,5.1,0.41,5.38,3.81c-4.12-0.98-8.24-1.96-12.36-2.94c-1.67-0.86-3.65-0.19-5.31-1.07
	C658.88,306.5,657.21,305.79,657.72,303.62z"/>
<path class="st3" d="M659.72,281.52c-0.79-1.7-2.53-2.17-3.95-3.06c-0.04-0.3-0.06-0.6-0.06-0.91c3.27-0.4,6.47-1.31,9.84-1.04
	c1.9,0.15,4.06-0.73,4.93-2.05c3.27-4.98,6.47-3.33,10.83-1.35c6.34,2.87,11.86,7.09,18.13,10c1.04,0.48,3.42,1.3,1.98,3.62
	c-1.6,1.1,0.65,1.93,0.21,2.95c-1.35,2.64-2.74,0.36-3.84-0.15c-5.53-2.59-10.79-5.7-16.94-6.95c-2.85-0.58-5.46-1.12-8.2,0.02
	C668.49,280.5,663.95,282.84,659.72,281.52z"/>
<path class="st76" d="M653.72,273.51c-0.37-0.98-0.73-1.96-1.1-2.94c5.02-1.31,9.67,0.57,14.47,1.91
	C662.79,274.55,658.37,275.16,653.72,273.51z"/>
<path class="st77" d="M701.64,289.69c-0.5-0.4-1.08-0.74-1.49-1.22c-0.55-0.64-2.17-0.89-1.33-2.05c0.65-0.9,1.7,0.35,2.61,0.32
	c1.17,1.17,2.63,1.68,4.23,1.87c0.66,0.66,1.32,1.31,1.99,1.97c0.01,2.94,4.01,3.04,4.17,5.88c-0.11,0.7,0.99,1.51-0.19,2.12
	C708.35,295.55,706.04,291.44,701.64,289.69z"/>
<path class="st78" d="M637.78,339.46c1.66,0.08,3.33,0.15,4.99,0.23c0.67,2.52,2.75,3.26,4.92,3.89c0.93,0.63,1.87,1.26,3.87,2.62
	c-1.13-2.52-2.23-4.11-0.88-5.68c4.96,1.88,6.81,6.92,10.36,10.25c3.03,2.84,5.85,5.86,9.6,7.78c0.76,0.64,2.82,0.05,2.04,2.15
	c-0.01,0.94-0.01,1.88-0.02,2.82c-8.64-2.61-13.85-10.02-20.86-14.9c-5.05-3.52-10.2-6.83-17.49-8.55
	C636.27,339.73,637.03,339.6,637.78,339.46z"/>
<path class="st79" d="M741.78,460.52c1.31,0.67,2.32,1.62,2.76,3.07c-4.38,0.65-7.78-1.33-10.89-4.07
	C736.78,456.46,739.05,460.38,741.78,460.52z"/>
<path class="st80" d="M738.64,474.53c-1.49-0.02-2.46,0.72-3.02,2.06c-1.06,0.37-1.51-0.35-1.96-1.08
	c-0.66-1.35-2.11-2.28-2.13-3.98C733.89,472.55,737.09,471.58,738.64,474.53z"/>
<path class="st81" d="M665.68,321.77c2.63,2.56,5.26,5.12,7.89,7.69c2.51,2.17,3.6,5.14,4.52,8.17c0.58,1.89,0.33,3.72-1.29,4.98
	c-1.73,1.34-3.61,0.72-5.09-0.41c-4.24-3.24-8.16-6.83-10.86-11.55c-1.56-2.74-2.88-5.65-5.39-7.71c-0.39-0.28-0.74-0.6-1.07-0.94
	c-1.16-1.93-2.56-3.73-3.15-5.96c-0.46-1.21-1.28-2.25-1.63-3.51c0.26-1.19-0.42-3.02,1.9-2.82c0.37,0.29,0.74,0.57,1.11,0.86
	C657.14,314.13,661.85,317.44,665.68,321.77z"/>
<path class="st71" d="M677.94,311.41c-1.79-1.27-3.59-2.54-5.38-3.81c0.44-0.05,0.88-0.11,1.31-0.16c7.84-2.4,14.47,0.5,20.7,4.84
	c1.61,1.12,2.89,2.72,4.89,3.26c0.46,0.27,0.85,0.61,1.2,1.01c1.55,3.25,5.39,5.53,4.2,9.93c-7.46-6.31-15.44-11.69-25.18-13.88
	C679.09,312.2,678.51,311.8,677.94,311.41z"/>
<path class="st82" d="M665.68,321.77c-5.16-2.79-9.57-6.45-13.04-11.2c2.35,0.99,4.7,1.98,7.04,2.97
	C661.18,316.64,665.27,317.86,665.68,321.77z"/>
<path class="st83" d="M649.36,303.77c3.04-5.8,3.04-5.8,8.33-1.22c-1.3,1.56-2.81,2.76-4.96,2.81
	C651.6,304.83,650.48,304.3,649.36,303.77z"/>
<path class="st84" d="M652.73,305.36c1.58-1.08,2.85-2.68,4.96-2.81c0.01,0.36,0.02,0.71,0.02,1.07c0.42,1.46,1.53,2.29,2.77,3.01
	c0.22,1.79-0.78,1.46-1.83,1.05C656.68,306.91,654.7,306.13,652.73,305.36z"/>
<path class="st85" d="M658.66,307.68c0.65-0.27,1.6-0.04,1.83-1.05c1.55,1.02,3.7,0.39,5.09,1.85
	C663.26,308.27,660.81,309.29,658.66,307.68z"/>
<path class="st86" d="M744.67,459.51c-0.95-0.01-1.89-0.02-2.84-0.03c-0.42-0.6-0.85-1.2-1.27-1.81c0.03-0.72,0.06-1.44,0.1-2.17
	C743.44,455.39,744.71,456.79,744.67,459.51L744.67,459.51z"/>
<path class="st87" d="M733.66,475.51c0.65,0.36,1.31,0.72,1.96,1.08c2.26,3.51,6,5.29,9.11,7.82c0.01,0.7,1.08,1.43-0.06,2.09
	c-8.71-2.6-17.66-4.74-24.11-11.93c-1.94-2.71-3.88-5.42-5.83-8.13c-0.57-0.55-0.64-1.16-0.22-1.82c4.59,4.6,11.5,5.82,15.79,10.91
	C731.2,476.62,732.55,477,733.66,475.51z"/>
<path class="st88" d="M707.73,463.35c0.53-1.35-4.99-1.94-0.47-3.91c0.47-0.21-0.53-1.37-1.1-1.91c-2.14-2.03-4.32-4.01-6.48-6.01
	c-0.33-1.32-0.66-2.65-1-3.97c1.39-0.6,2.03,0.45,2.78,1.26c0.29,0.32,0.21,0.99,0.87,0.97c-0.22-0.44-0.33-0.9-0.39-1.39
	c0.13-0.97,0.22-1.96,1.61-1.8c1.72,2.64,3.43,5.28,5.15,7.91c1.06,2.31,2.11,4.62,3.17,6.93c-0.96,0.79-2.15,1.26-3.01,2.19
	C708.42,463.78,708.04,463.7,707.73,463.35z"/>
<path class="st89" d="M708.71,463.44c-0.37-2.89,1.08-2.94,3.15-2.01c0.88,1.06,1.76,2.13,2.64,3.2c0.07,0.61,0.15,1.22,0.22,1.82
	c-0.44,0.84-1.24,1.02-2.08,1.08C710.07,467.39,709.39,465.41,708.71,463.44z"/>
<path class="st90" d="M717.7,457.46c1.97,1.7,3.93,3.4,5.9,5.09C719.5,463.5,717.44,461.72,717.7,457.46z"/>
<path class="st91" d="M712.66,494.51c0.68-0.01,1.36-0.02,2.03-0.02c3.82-0.22,7.43,2.6,11.37,0.8c4.56,0.27,4.95,0.61,3.57,3.14
	l0.01,0.03c-1.77,1.27-3.77,2.13-5.73,3.06c-1.4,0.32-2.81,1.17-4.21,0.01c-5.03-0.17-9.03,2.43-13.1,4.87
	c-1.15-1.36-2.72-0.83-4.14-0.89c-2.18-0.1-3.51-0.76-1.45-2.77c2.58-2.52-1.15-2.09-1.35-3.25c2.75-3.4,7.6-4.67,11.96-3.13
	c0.11,3.65-3.85,1.47-4.85,3.51c2.62,2.77,3.65,2.4,5.79-2.22C712.55,496.61,711.52,495.53,712.66,494.51z"/>
<path class="st92" d="M719.71,501.53c1.29-0.3,2.57-0.59,3.86-0.89c1.34,1.45,0.05,2.09-0.87,2.85c-4.34,2.19-5.8,7.4-9.96,9.85
	c-1.72-1.72,0.94-3.07,0.1-4.59c-2.38-0.48-3.88,1.87-6.07,1.65C709.99,505.87,715.65,504.87,719.71,501.53z"/>
<path class="st93" d="M692.69,518.51c-4.05,0.25-1.62-1.68-1.01-3c0.33-0.34,0.66-0.68,1-1.02c2.65-1.01,5.31-2.01,7.96-3.02
	c0.73,0.17,1.98,0.33,1.06,1.33C699.22,515.45,697.01,518.7,692.69,518.51z"/>
<path class="st94" d="M729.63,498.43c0.42-4.08-2.85-0.94-3.96-2.02c-0.36-2.16-1.94-3.1-3.74-3.99c-1.29-0.64-3.35-0.6-3.27-2.86
	c4.37,1.64,1.73-3.63,4-4.06c1.29,6.34,7.29,7.21,11.67,9.89c0.93,0.57,2.21,0.47,2.25,1.98c-1.65,0.36-3.54-0.39-4.94,1.09
	C730.98,498.45,730.3,498.44,729.63,498.43z"/>
<path class="st95" d="M722.69,503.5c0.29-0.95,0.58-1.9,0.87-2.85c2.03-0.73,4.05-1.45,6.08-2.18c-1.65,1.68-3.3,3.36-4.96,5.05
	C724.02,503.51,723.36,503.5,722.69,503.5z"/>
<path class="st96" d="M744.67,459.5c-0.96-1.71-2.28-3.06-4.01-4c0,0,0.01,0.02,0.01,0.02c-0.88-1.44-2.1-2.63-3.01-4.05
	c-0.63-0.98-0.6-1.97,0-2.95c4.16,1.69,5.97,5.46,8,9.03C746.3,458.66,746.12,459.42,744.67,459.5z"/>
<path class="st97" d="M737.66,451.47c1.58,0.92,2.93,2.01,3.01,4.05C739.06,454.62,737.73,453.51,737.66,451.47z"/>
<path class="st98" d="M711.71,497.42c-4.53-2.32-8.2,0.32-12.03,2.07c-2.07-0.42-2.9-2.3-0.8-2.61c3.85-0.56,6.41-3.26,9.8-4.38
	c1.33,0.67,2.66,1.34,3.99,2.01c0.33,1.05,0.67,2.1,1,3.15C712.94,498.12,712.29,498.02,711.71,497.42z"/>
<path class="st71" d="M656.94,336.45c0.27-0.1,0.53-0.09,0.79,0.04c3.91,2.02,4.52,6.68,7.55,9.4c1.73,2.09,4.05,3.69,5.25,6.23
	c0.5,1.7,2.11,3.06,1.54,5.08c-0.16,0.16-0.32,0.33-0.48,0.49c-5.52-5.12-11.23-10.08-14.93-16.78
	C655.94,339.6,653.67,337.71,656.94,336.45z"/>
<path class="st99" d="M672.69,360.71c-0.68-0.72-1.36-1.43-2.04-2.15c0.31-0.29,0.63-0.58,0.94-0.87c0,0,0.2-0.36,0.2-0.36
	c2.01,0.1,3.57,0.76,3.82,3.06C674.64,360.49,673.67,360.6,672.69,360.71z"/>
<path class="st100" d="M675.62,360.38c-1.28-1.02-2.55-2.04-3.82-3.06c-0.71-1.59-1.42-3.18-2.13-4.78
	c1.02-0.55,1.79-0.09,2.62,0.72c-0.93-1.44-2.61-2.46-1.66-4.43c1.8-2.59,4.29-2.77,6.9-1.7c3.26,1.34,6.29,1.15,9.25-0.7
	c3.89,0.82,4.06,4.24,4.98,7.14c0.18,3.12-1.2,5.63-3.15,7.9c-0.31,0.02-0.63,0.06-0.93,0.11c-1.51,0.35-2.88-0.17-4.1-0.91
	c-2.32-1.42-1.56,0.99-2.2,1.66c-1.24,0.02-2.49,0.05-3.73,0.07C676.98,361.74,676.3,361.06,675.62,360.38z"/>
<path class="st101" d="M708.71,463.44c1.31,1.36,2.62,2.72,3.93,4.09c0.25,0.58,0.74,1.18,0.7,1.75c-0.08,1.11-0.94,0.64-1.41,0.34
	c-2.29-1.47-4.86-2.62-6.37-5.07c0.45-0.88,1.28-1.07,2.16-1.19C708.05,463.44,708.38,463.47,708.71,463.44z"/>
<path class="st8" d="M664.64,346.63c-3.33-2.68-4.32-6.96-6.91-10.14c0.46-2.98-1.56-4.87-3.08-6.98c-0.54-2.34-1.07-4.68-1.61-7.02
	c0.45-0.58,1-1,1.76-1.05c0.32,0.05,0.64,0.09,0.96,0.12c3.24,7.36,6.8,14.54,11.46,21.13c0.66,0.94,1.18,1.98,0.98,3.21
	C667.35,347.76,665.77,346.08,664.64,346.63z"/>
<path class="st102" d="M654.81,321.44c-0.59,0.35-1.18,0.7-1.76,1.05c-1.18-2.19-2.28-4.41-2.73-6.89c0.44-0.46,0.89-0.47,1.34-0.03
	C652.71,317.52,653.76,319.48,654.81,321.44z"/>
<path class="st103" d="M651.66,315.56c-0.45,0.01-0.9,0.02-1.34,0.03c-0.51-1.03-1.01-2.06-1.52-3.09c0.28-0.01,0.55,0,0.83,0.03
	C650.85,313.18,651.11,314.47,651.66,315.56z"/>
<path class="st104" d="M703.55,446.58c-0.76,0.43-0.86,1.16-0.87,1.93c-4.05-2.14-5.84-5.42-4.98-10c0.37-0.01,0.73-0.01,1.1-0.02
	c0.59,0.71,1.19,1.43,1.78,2.14C700.8,442.99,702.86,444.45,703.55,446.58z"/>
<path class="st105" d="M697.7,438.51c0.62,3.85,2.67,6.99,4.98,10c0.71,1.47,2.26,2.49,2.36,4.56c-3.55-0.3-3.76-4.34-6.36-5.53
	c-1.37-2.78-2.94-5.54-2.96-8.71C695.71,435.69,696.83,437.39,697.7,438.51z"/>
<path class="st106" d="M718.67,489.55c2.32,1.14,4.61,2.36,6.97,3.41c2.71,1.2,1.25,2.29,0.03,3.45c-4.14,2.1-7.54-0.02-10.98-1.92
	c-0.73-1.53-4.23-1.74-2.98-3.69C713.12,488.61,716.24,489.59,718.67,489.55z"/>
<path class="st107" d="M681.39,362.35c-0.19-1.48-2.89-2.53-1.22-4.12c1.37-1.31,2.43,0.88,3.68,1.35c1.34,0.5,2.56,1.34,3.83,2.03
	C685.75,363.28,683.51,362.26,681.39,362.35z"/>
<path class="st73" d="M700.65,316.54c-0.33,0-0.66,0-1,0c-1.55-0.93-3.01-1.94-4.26-3.28c-3.96-4.26-8.27-7.92-14.4-8.68
	c-1.78-0.22-3.5-1-4.26-2.93c-2.07-3.67,0.9-4.43,3.21-4.91c4.28-0.88,7.72,1.22,10.56,4.19c3.18,3.33,6.23,6.8,9.24,10.29
	C701.07,312.74,702.14,314.46,700.65,316.54z"/>
<path class="st108" d="M676.73,301.64c1.2,0.55,2.37,1.48,3.61,1.58c9.05,0.72,14.08,7.13,19.31,13.31
	c-1.36,0.08-2.66-0.02-3.64-1.14c-5.9-6.78-13.97-7.53-22.14-7.96c0.3-1.27,0.6-2.55,0.9-3.82
	C675.43,302.95,676.08,302.29,676.73,301.64z"/>
<path class="st109" d="M667.8,346.49c-2.8-6.46-8.14-11.5-10.28-18.35c-0.68-2.17-1.81-4.22-1.75-6.59
	c2.82,1.77,4.27,4.65,5.58,7.48c2.33,5.04,6.64,8.25,10.49,11.87c1.08,1.02,2.74,2.35,4.44,0.94c1.51-1.26,1.16-2.94,0.48-4.57
	c-1.08-2.6-2.12-5.21-3.18-7.82c7.67,3.12,12.04,8.81,13.21,16.99c-1.65,5.14-5.49,3.45-8.46,2.19c-3.03-1.29-5.33-1.11-7.69,0.94
	C668.34,349.79,667.84,348.35,667.8,346.49z"/>
<path class="st110" d="M711.71,497.42c0.65,0.08,1.3,0.16,1.95,0.24c0.69,4.16-2.73,4.62-5.29,5.67c-2.5,1.03-1.9-1.89-2.93-2.55
	c-1.73-1.1-0.46-1.25,0.19-1.91C707.38,497.1,709.6,497.56,711.71,497.42z"/>
<path class="st111" d="M667.8,346.49c0.95,1.03,1.89,2.06,2.84,3.08c1.54,1.76,3.09,3.52,4.84,5.53c-2.73,0.26-3.97-1.8-5.81-2.55
	c-1.68-1.97-3.35-3.95-5.03-5.92C665.54,343.06,666.77,347.1,667.8,346.49z"/>
</svg>
